M48
;DRILL file {PCBnew (2010-06-08 BZR 2367)-stable} date Sat 18 Dec 2010 10:45:42 PM CET
;FORMAT={-.-/ absolute / inch / decimal}
R,T
VER,1
FMAT,2
INCH,TZ
TCST,OFF
ICI,OFF
ATC,ON
T1C0.025
T2C0.032
T3C0.040
T4C0.120
%
M47
G05
M72
T1
X0.650Y-2.000
X0.650Y-3.325
X0.750Y-2.200
X0.750Y-3.450
X0.850Y-1.200
X0.850Y-1.500
X0.950Y-1.200
X0.950Y-1.500
X1.150Y-3.450
X1.450Y-1.200
X1.450Y-1.500
X1.550Y-1.200
X1.550Y-1.500
X1.650Y-3.325
X1.700Y-3.900
X1.750Y-2.100
X1.850Y-2.200
X1.850Y-2.500
X1.950Y-2.100
X2.050Y-1.200
X2.050Y-1.500
X2.150Y-1.200
X2.150Y-1.500
X2.150Y-2.300
X2.150Y-2.400
X2.350Y-2.000
X2.350Y-3.900
X2.450Y-2.300
X2.550Y-2.400
X2.650Y-1.200
X2.650Y-1.500
X2.750Y-1.200
X2.750Y-1.500
X3.300Y-2.600
T2
X0.850Y-2.650
X0.850Y-3.250
X0.950Y-2.650
X0.950Y-3.250
X1.050Y-2.650
X1.050Y-3.250
X1.150Y-2.650
X1.150Y-3.250
X1.250Y-2.650
X1.250Y-3.250
X1.275Y-4.100
X1.275Y-4.200
X1.275Y-4.300
X1.275Y-4.400
X1.350Y-2.650
X1.350Y-3.250
X1.450Y-2.650
X1.450Y-3.250
X1.550Y-2.650
X1.550Y-3.250
X1.575Y-4.100
X1.575Y-4.200
X1.575Y-4.300
X1.575Y-4.400
X1.650Y-2.650
X1.650Y-3.250
X1.750Y-2.650
X1.750Y-3.250
X1.850Y-2.650
X1.850Y-3.250
X1.900Y-3.500
X1.900Y-3.700
X1.900Y-3.800
X1.950Y-2.650
X1.950Y-3.250
X2.050Y-2.650
X2.050Y-3.250
X2.100Y-3.500
X2.100Y-3.700
X2.100Y-3.800
X2.150Y-2.650
X2.150Y-3.250
X2.250Y-2.650
X2.250Y-3.250
X2.350Y-2.650
X2.350Y-3.250
X2.450Y-2.650
X2.450Y-3.250
X2.550Y-2.650
X2.550Y-3.250
X2.650Y-2.650
X2.650Y-3.250
X2.700Y-4.200
X2.700Y-4.300
X2.700Y-4.400
X2.700Y-4.500
X2.750Y-2.650
X2.750Y-3.250
X3.000Y-4.200
X3.000Y-4.300
X3.000Y-4.400
X3.000Y-4.500
T3
X0.750Y-1.000
X0.750Y-1.100
X0.850Y-1.000
X0.850Y-1.100
X0.850Y-3.700
X0.850Y-3.800
X0.950Y-1.000
X0.950Y-1.100
X0.950Y-3.700
X0.950Y-3.800
X1.050Y-3.700
X1.050Y-3.800
X1.350Y-1.000
X1.350Y-1.100
X1.450Y-1.000
X1.450Y-1.100
X1.550Y-1.000
X1.550Y-1.100
X1.950Y-1.000
X1.950Y-1.100
X2.050Y-1.000
X2.050Y-1.100
X2.100Y-4.200
X2.100Y-4.300
X2.150Y-1.000
X2.150Y-1.100
X2.150Y-2.100
X2.150Y-2.200
X2.200Y-4.200
X2.200Y-4.300
X2.250Y-2.100
X2.250Y-2.200
X2.300Y-4.200
X2.300Y-4.300
X2.350Y-2.100
X2.350Y-2.200
X2.450Y-2.100
X2.450Y-2.200
X2.550Y-1.000
X2.550Y-1.100
X2.550Y-2.100
X2.550Y-2.200
X2.650Y-1.000
X2.650Y-1.100
X2.750Y-1.000
X2.750Y-1.100
X3.025Y-2.850
X3.025Y-2.950
X3.025Y-3.050
X3.150Y-2.100
X3.150Y-2.200
X3.250Y-2.100
X3.250Y-2.200
X3.350Y-2.100
X3.350Y-2.200
X3.450Y-1.150
X3.450Y-1.350
X3.450Y-3.500
X3.450Y-3.700
T4
X0.700Y-0.700
X0.800Y-4.350
X3.450Y-0.700
X3.450Y-4.350
T0
M30
