G04 (created by PCBNEW (2010-06-08 BZR 2367)-stable) date Sat 18 Dec 2010 10:45:44 PM CET*
G01*
G70*
G90*
%MOIN*%
G04 Gerber Fmt 3.4, Leading zero omitted, Abs format*
%FSLAX34Y34*%
G04 APERTURE LIST*
%ADD10C,0.001000*%
%ADD11C,0.015000*%
%ADD12C,0.008000*%
G04 APERTURE END LIST*
G54D10*
G54D11*
X37000Y-05500D02*
X37000Y-46500D01*
X05500Y-46500D02*
X05500Y-05500D01*
X37000Y-46500D02*
X05500Y-46500D01*
X05500Y-05500D02*
X37000Y-05500D01*
G54D10*
X06375Y-19875D02*
X06625Y-20125D01*
X06625Y-19875D02*
X06375Y-20125D01*
X06375Y-33125D02*
X06625Y-33375D01*
X06625Y-33125D02*
X06375Y-33375D01*
X07375Y-21875D02*
X07625Y-22125D01*
X07625Y-21875D02*
X07375Y-22125D01*
X07375Y-34375D02*
X07625Y-34625D01*
X07625Y-34375D02*
X07375Y-34625D01*
X08375Y-11875D02*
X08625Y-12125D01*
X08625Y-11875D02*
X08375Y-12125D01*
X08375Y-14875D02*
X08625Y-15125D01*
X08625Y-14875D02*
X08375Y-15125D01*
X09375Y-11875D02*
X09625Y-12125D01*
X09625Y-11875D02*
X09375Y-12125D01*
X09375Y-14875D02*
X09625Y-15125D01*
X09625Y-14875D02*
X09375Y-15125D01*
X11375Y-34375D02*
X11625Y-34625D01*
X11625Y-34375D02*
X11375Y-34625D01*
X14375Y-11875D02*
X14625Y-12125D01*
X14625Y-11875D02*
X14375Y-12125D01*
X14375Y-14875D02*
X14625Y-15125D01*
X14625Y-14875D02*
X14375Y-15125D01*
X15375Y-11875D02*
X15625Y-12125D01*
X15625Y-11875D02*
X15375Y-12125D01*
X15375Y-14875D02*
X15625Y-15125D01*
X15625Y-14875D02*
X15375Y-15125D01*
X16375Y-33125D02*
X16625Y-33375D01*
X16625Y-33125D02*
X16375Y-33375D01*
X16875Y-38875D02*
X17125Y-39125D01*
X17125Y-38875D02*
X16875Y-39125D01*
X17375Y-20875D02*
X17625Y-21125D01*
X17625Y-20875D02*
X17375Y-21125D01*
X18375Y-21875D02*
X18625Y-22125D01*
X18625Y-21875D02*
X18375Y-22125D01*
X18375Y-24875D02*
X18625Y-25125D01*
X18625Y-24875D02*
X18375Y-25125D01*
X19375Y-20875D02*
X19625Y-21125D01*
X19625Y-20875D02*
X19375Y-21125D01*
X20375Y-11875D02*
X20625Y-12125D01*
X20625Y-11875D02*
X20375Y-12125D01*
X20375Y-14875D02*
X20625Y-15125D01*
X20625Y-14875D02*
X20375Y-15125D01*
X21375Y-11875D02*
X21625Y-12125D01*
X21625Y-11875D02*
X21375Y-12125D01*
X21375Y-14875D02*
X21625Y-15125D01*
X21625Y-14875D02*
X21375Y-15125D01*
X21375Y-22875D02*
X21625Y-23125D01*
X21625Y-22875D02*
X21375Y-23125D01*
X21375Y-23875D02*
X21625Y-24125D01*
X21625Y-23875D02*
X21375Y-24125D01*
X23375Y-19875D02*
X23625Y-20125D01*
X23625Y-19875D02*
X23375Y-20125D01*
X23375Y-38875D02*
X23625Y-39125D01*
X23625Y-38875D02*
X23375Y-39125D01*
X24375Y-22875D02*
X24625Y-23125D01*
X24625Y-22875D02*
X24375Y-23125D01*
X25375Y-23875D02*
X25625Y-24125D01*
X25625Y-23875D02*
X25375Y-24125D01*
X26375Y-11875D02*
X26625Y-12125D01*
X26625Y-11875D02*
X26375Y-12125D01*
X26375Y-14875D02*
X26625Y-15125D01*
X26625Y-14875D02*
X26375Y-15125D01*
X27375Y-11875D02*
X27625Y-12125D01*
X27625Y-11875D02*
X27375Y-12125D01*
X27375Y-14875D02*
X27625Y-15125D01*
X27625Y-14875D02*
X27375Y-15125D01*
X32875Y-25875D02*
X33125Y-26125D01*
X33125Y-25875D02*
X32875Y-26125D01*
X08660Y-26500D02*
X08656Y-26531D01*
X08647Y-26560D01*
X08633Y-26588D01*
X08613Y-26612D01*
X08589Y-26632D01*
X08562Y-26647D01*
X08532Y-26656D01*
X08501Y-26659D01*
X08471Y-26657D01*
X08441Y-26648D01*
X08413Y-26633D01*
X08389Y-26614D01*
X08368Y-26590D01*
X08353Y-26563D01*
X08344Y-26533D01*
X08341Y-26502D01*
X08343Y-26472D01*
X08352Y-26442D01*
X08366Y-26414D01*
X08385Y-26389D01*
X08409Y-26369D01*
X08436Y-26354D01*
X08466Y-26344D01*
X08497Y-26341D01*
X08527Y-26343D01*
X08557Y-26351D01*
X08585Y-26365D01*
X08610Y-26385D01*
X08630Y-26408D01*
X08646Y-26435D01*
X08656Y-26465D01*
X08659Y-26496D01*
X08660Y-26500D01*
X08660Y-32500D02*
X08656Y-32531D01*
X08647Y-32560D01*
X08633Y-32588D01*
X08613Y-32612D01*
X08589Y-32632D01*
X08562Y-32647D01*
X08532Y-32656D01*
X08501Y-32659D01*
X08471Y-32657D01*
X08441Y-32648D01*
X08413Y-32633D01*
X08389Y-32614D01*
X08368Y-32590D01*
X08353Y-32563D01*
X08344Y-32533D01*
X08341Y-32502D01*
X08343Y-32472D01*
X08352Y-32442D01*
X08366Y-32414D01*
X08385Y-32389D01*
X08409Y-32369D01*
X08436Y-32354D01*
X08466Y-32344D01*
X08497Y-32341D01*
X08527Y-32343D01*
X08557Y-32351D01*
X08585Y-32365D01*
X08610Y-32385D01*
X08630Y-32408D01*
X08646Y-32435D01*
X08656Y-32465D01*
X08659Y-32496D01*
X08660Y-32500D01*
X09660Y-26500D02*
X09656Y-26531D01*
X09647Y-26560D01*
X09633Y-26588D01*
X09613Y-26612D01*
X09589Y-26632D01*
X09562Y-26647D01*
X09532Y-26656D01*
X09501Y-26659D01*
X09471Y-26657D01*
X09441Y-26648D01*
X09413Y-26633D01*
X09389Y-26614D01*
X09368Y-26590D01*
X09353Y-26563D01*
X09344Y-26533D01*
X09341Y-26502D01*
X09343Y-26472D01*
X09352Y-26442D01*
X09366Y-26414D01*
X09385Y-26389D01*
X09409Y-26369D01*
X09436Y-26354D01*
X09466Y-26344D01*
X09497Y-26341D01*
X09527Y-26343D01*
X09557Y-26351D01*
X09585Y-26365D01*
X09610Y-26385D01*
X09630Y-26408D01*
X09646Y-26435D01*
X09656Y-26465D01*
X09659Y-26496D01*
X09660Y-26500D01*
X09660Y-32500D02*
X09656Y-32531D01*
X09647Y-32560D01*
X09633Y-32588D01*
X09613Y-32612D01*
X09589Y-32632D01*
X09562Y-32647D01*
X09532Y-32656D01*
X09501Y-32659D01*
X09471Y-32657D01*
X09441Y-32648D01*
X09413Y-32633D01*
X09389Y-32614D01*
X09368Y-32590D01*
X09353Y-32563D01*
X09344Y-32533D01*
X09341Y-32502D01*
X09343Y-32472D01*
X09352Y-32442D01*
X09366Y-32414D01*
X09385Y-32389D01*
X09409Y-32369D01*
X09436Y-32354D01*
X09466Y-32344D01*
X09497Y-32341D01*
X09527Y-32343D01*
X09557Y-32351D01*
X09585Y-32365D01*
X09610Y-32385D01*
X09630Y-32408D01*
X09646Y-32435D01*
X09656Y-32465D01*
X09659Y-32496D01*
X09660Y-32500D01*
X10660Y-26500D02*
X10656Y-26531D01*
X10647Y-26560D01*
X10633Y-26588D01*
X10613Y-26612D01*
X10589Y-26632D01*
X10562Y-26647D01*
X10532Y-26656D01*
X10501Y-26659D01*
X10471Y-26657D01*
X10441Y-26648D01*
X10413Y-26633D01*
X10389Y-26614D01*
X10368Y-26590D01*
X10353Y-26563D01*
X10344Y-26533D01*
X10341Y-26502D01*
X10343Y-26472D01*
X10352Y-26442D01*
X10366Y-26414D01*
X10385Y-26389D01*
X10409Y-26369D01*
X10436Y-26354D01*
X10466Y-26344D01*
X10497Y-26341D01*
X10527Y-26343D01*
X10557Y-26351D01*
X10585Y-26365D01*
X10610Y-26385D01*
X10630Y-26408D01*
X10646Y-26435D01*
X10656Y-26465D01*
X10659Y-26496D01*
X10660Y-26500D01*
X10660Y-32500D02*
X10656Y-32531D01*
X10647Y-32560D01*
X10633Y-32588D01*
X10613Y-32612D01*
X10589Y-32632D01*
X10562Y-32647D01*
X10532Y-32656D01*
X10501Y-32659D01*
X10471Y-32657D01*
X10441Y-32648D01*
X10413Y-32633D01*
X10389Y-32614D01*
X10368Y-32590D01*
X10353Y-32563D01*
X10344Y-32533D01*
X10341Y-32502D01*
X10343Y-32472D01*
X10352Y-32442D01*
X10366Y-32414D01*
X10385Y-32389D01*
X10409Y-32369D01*
X10436Y-32354D01*
X10466Y-32344D01*
X10497Y-32341D01*
X10527Y-32343D01*
X10557Y-32351D01*
X10585Y-32365D01*
X10610Y-32385D01*
X10630Y-32408D01*
X10646Y-32435D01*
X10656Y-32465D01*
X10659Y-32496D01*
X10660Y-32500D01*
X11660Y-26500D02*
X11656Y-26531D01*
X11647Y-26560D01*
X11633Y-26588D01*
X11613Y-26612D01*
X11589Y-26632D01*
X11562Y-26647D01*
X11532Y-26656D01*
X11501Y-26659D01*
X11471Y-26657D01*
X11441Y-26648D01*
X11413Y-26633D01*
X11389Y-26614D01*
X11368Y-26590D01*
X11353Y-26563D01*
X11344Y-26533D01*
X11341Y-26502D01*
X11343Y-26472D01*
X11352Y-26442D01*
X11366Y-26414D01*
X11385Y-26389D01*
X11409Y-26369D01*
X11436Y-26354D01*
X11466Y-26344D01*
X11497Y-26341D01*
X11527Y-26343D01*
X11557Y-26351D01*
X11585Y-26365D01*
X11610Y-26385D01*
X11630Y-26408D01*
X11646Y-26435D01*
X11656Y-26465D01*
X11659Y-26496D01*
X11660Y-26500D01*
X11660Y-32500D02*
X11656Y-32531D01*
X11647Y-32560D01*
X11633Y-32588D01*
X11613Y-32612D01*
X11589Y-32632D01*
X11562Y-32647D01*
X11532Y-32656D01*
X11501Y-32659D01*
X11471Y-32657D01*
X11441Y-32648D01*
X11413Y-32633D01*
X11389Y-32614D01*
X11368Y-32590D01*
X11353Y-32563D01*
X11344Y-32533D01*
X11341Y-32502D01*
X11343Y-32472D01*
X11352Y-32442D01*
X11366Y-32414D01*
X11385Y-32389D01*
X11409Y-32369D01*
X11436Y-32354D01*
X11466Y-32344D01*
X11497Y-32341D01*
X11527Y-32343D01*
X11557Y-32351D01*
X11585Y-32365D01*
X11610Y-32385D01*
X11630Y-32408D01*
X11646Y-32435D01*
X11656Y-32465D01*
X11659Y-32496D01*
X11660Y-32500D01*
X12660Y-26500D02*
X12656Y-26531D01*
X12647Y-26560D01*
X12633Y-26588D01*
X12613Y-26612D01*
X12589Y-26632D01*
X12562Y-26647D01*
X12532Y-26656D01*
X12501Y-26659D01*
X12471Y-26657D01*
X12441Y-26648D01*
X12413Y-26633D01*
X12389Y-26614D01*
X12368Y-26590D01*
X12353Y-26563D01*
X12344Y-26533D01*
X12341Y-26502D01*
X12343Y-26472D01*
X12352Y-26442D01*
X12366Y-26414D01*
X12385Y-26389D01*
X12409Y-26369D01*
X12436Y-26354D01*
X12466Y-26344D01*
X12497Y-26341D01*
X12527Y-26343D01*
X12557Y-26351D01*
X12585Y-26365D01*
X12610Y-26385D01*
X12630Y-26408D01*
X12646Y-26435D01*
X12656Y-26465D01*
X12659Y-26496D01*
X12660Y-26500D01*
X12660Y-32500D02*
X12656Y-32531D01*
X12647Y-32560D01*
X12633Y-32588D01*
X12613Y-32612D01*
X12589Y-32632D01*
X12562Y-32647D01*
X12532Y-32656D01*
X12501Y-32659D01*
X12471Y-32657D01*
X12441Y-32648D01*
X12413Y-32633D01*
X12389Y-32614D01*
X12368Y-32590D01*
X12353Y-32563D01*
X12344Y-32533D01*
X12341Y-32502D01*
X12343Y-32472D01*
X12352Y-32442D01*
X12366Y-32414D01*
X12385Y-32389D01*
X12409Y-32369D01*
X12436Y-32354D01*
X12466Y-32344D01*
X12497Y-32341D01*
X12527Y-32343D01*
X12557Y-32351D01*
X12585Y-32365D01*
X12610Y-32385D01*
X12630Y-32408D01*
X12646Y-32435D01*
X12656Y-32465D01*
X12659Y-32496D01*
X12660Y-32500D01*
X12910Y-41000D02*
X12906Y-41031D01*
X12897Y-41060D01*
X12883Y-41088D01*
X12863Y-41112D01*
X12839Y-41132D01*
X12812Y-41147D01*
X12782Y-41156D01*
X12751Y-41159D01*
X12721Y-41157D01*
X12691Y-41148D01*
X12663Y-41133D01*
X12639Y-41114D01*
X12618Y-41090D01*
X12603Y-41063D01*
X12594Y-41033D01*
X12591Y-41002D01*
X12593Y-40972D01*
X12602Y-40942D01*
X12616Y-40914D01*
X12635Y-40889D01*
X12659Y-40869D01*
X12686Y-40854D01*
X12716Y-40844D01*
X12747Y-40841D01*
X12777Y-40843D01*
X12807Y-40851D01*
X12835Y-40865D01*
X12860Y-40885D01*
X12880Y-40908D01*
X12896Y-40935D01*
X12906Y-40965D01*
X12909Y-40996D01*
X12910Y-41000D01*
X12910Y-42000D02*
X12906Y-42031D01*
X12897Y-42060D01*
X12883Y-42088D01*
X12863Y-42112D01*
X12839Y-42132D01*
X12812Y-42147D01*
X12782Y-42156D01*
X12751Y-42159D01*
X12721Y-42157D01*
X12691Y-42148D01*
X12663Y-42133D01*
X12639Y-42114D01*
X12618Y-42090D01*
X12603Y-42063D01*
X12594Y-42033D01*
X12591Y-42002D01*
X12593Y-41972D01*
X12602Y-41942D01*
X12616Y-41914D01*
X12635Y-41889D01*
X12659Y-41869D01*
X12686Y-41854D01*
X12716Y-41844D01*
X12747Y-41841D01*
X12777Y-41843D01*
X12807Y-41851D01*
X12835Y-41865D01*
X12860Y-41885D01*
X12880Y-41908D01*
X12896Y-41935D01*
X12906Y-41965D01*
X12909Y-41996D01*
X12910Y-42000D01*
X12910Y-43000D02*
X12906Y-43031D01*
X12897Y-43060D01*
X12883Y-43088D01*
X12863Y-43112D01*
X12839Y-43132D01*
X12812Y-43147D01*
X12782Y-43156D01*
X12751Y-43159D01*
X12721Y-43157D01*
X12691Y-43148D01*
X12663Y-43133D01*
X12639Y-43114D01*
X12618Y-43090D01*
X12603Y-43063D01*
X12594Y-43033D01*
X12591Y-43002D01*
X12593Y-42972D01*
X12602Y-42942D01*
X12616Y-42914D01*
X12635Y-42889D01*
X12659Y-42869D01*
X12686Y-42854D01*
X12716Y-42844D01*
X12747Y-42841D01*
X12777Y-42843D01*
X12807Y-42851D01*
X12835Y-42865D01*
X12860Y-42885D01*
X12880Y-42908D01*
X12896Y-42935D01*
X12906Y-42965D01*
X12909Y-42996D01*
X12910Y-43000D01*
X12910Y-44000D02*
X12906Y-44031D01*
X12897Y-44060D01*
X12883Y-44088D01*
X12863Y-44112D01*
X12839Y-44132D01*
X12812Y-44147D01*
X12782Y-44156D01*
X12751Y-44159D01*
X12721Y-44157D01*
X12691Y-44148D01*
X12663Y-44133D01*
X12639Y-44114D01*
X12618Y-44090D01*
X12603Y-44063D01*
X12594Y-44033D01*
X12591Y-44002D01*
X12593Y-43972D01*
X12602Y-43942D01*
X12616Y-43914D01*
X12635Y-43889D01*
X12659Y-43869D01*
X12686Y-43854D01*
X12716Y-43844D01*
X12747Y-43841D01*
X12777Y-43843D01*
X12807Y-43851D01*
X12835Y-43865D01*
X12860Y-43885D01*
X12880Y-43908D01*
X12896Y-43935D01*
X12906Y-43965D01*
X12909Y-43996D01*
X12910Y-44000D01*
X13660Y-26500D02*
X13656Y-26531D01*
X13647Y-26560D01*
X13633Y-26588D01*
X13613Y-26612D01*
X13589Y-26632D01*
X13562Y-26647D01*
X13532Y-26656D01*
X13501Y-26659D01*
X13471Y-26657D01*
X13441Y-26648D01*
X13413Y-26633D01*
X13389Y-26614D01*
X13368Y-26590D01*
X13353Y-26563D01*
X13344Y-26533D01*
X13341Y-26502D01*
X13343Y-26472D01*
X13352Y-26442D01*
X13366Y-26414D01*
X13385Y-26389D01*
X13409Y-26369D01*
X13436Y-26354D01*
X13466Y-26344D01*
X13497Y-26341D01*
X13527Y-26343D01*
X13557Y-26351D01*
X13585Y-26365D01*
X13610Y-26385D01*
X13630Y-26408D01*
X13646Y-26435D01*
X13656Y-26465D01*
X13659Y-26496D01*
X13660Y-26500D01*
X13660Y-32500D02*
X13656Y-32531D01*
X13647Y-32560D01*
X13633Y-32588D01*
X13613Y-32612D01*
X13589Y-32632D01*
X13562Y-32647D01*
X13532Y-32656D01*
X13501Y-32659D01*
X13471Y-32657D01*
X13441Y-32648D01*
X13413Y-32633D01*
X13389Y-32614D01*
X13368Y-32590D01*
X13353Y-32563D01*
X13344Y-32533D01*
X13341Y-32502D01*
X13343Y-32472D01*
X13352Y-32442D01*
X13366Y-32414D01*
X13385Y-32389D01*
X13409Y-32369D01*
X13436Y-32354D01*
X13466Y-32344D01*
X13497Y-32341D01*
X13527Y-32343D01*
X13557Y-32351D01*
X13585Y-32365D01*
X13610Y-32385D01*
X13630Y-32408D01*
X13646Y-32435D01*
X13656Y-32465D01*
X13659Y-32496D01*
X13660Y-32500D01*
X14660Y-26500D02*
X14656Y-26531D01*
X14647Y-26560D01*
X14633Y-26588D01*
X14613Y-26612D01*
X14589Y-26632D01*
X14562Y-26647D01*
X14532Y-26656D01*
X14501Y-26659D01*
X14471Y-26657D01*
X14441Y-26648D01*
X14413Y-26633D01*
X14389Y-26614D01*
X14368Y-26590D01*
X14353Y-26563D01*
X14344Y-26533D01*
X14341Y-26502D01*
X14343Y-26472D01*
X14352Y-26442D01*
X14366Y-26414D01*
X14385Y-26389D01*
X14409Y-26369D01*
X14436Y-26354D01*
X14466Y-26344D01*
X14497Y-26341D01*
X14527Y-26343D01*
X14557Y-26351D01*
X14585Y-26365D01*
X14610Y-26385D01*
X14630Y-26408D01*
X14646Y-26435D01*
X14656Y-26465D01*
X14659Y-26496D01*
X14660Y-26500D01*
X14660Y-32500D02*
X14656Y-32531D01*
X14647Y-32560D01*
X14633Y-32588D01*
X14613Y-32612D01*
X14589Y-32632D01*
X14562Y-32647D01*
X14532Y-32656D01*
X14501Y-32659D01*
X14471Y-32657D01*
X14441Y-32648D01*
X14413Y-32633D01*
X14389Y-32614D01*
X14368Y-32590D01*
X14353Y-32563D01*
X14344Y-32533D01*
X14341Y-32502D01*
X14343Y-32472D01*
X14352Y-32442D01*
X14366Y-32414D01*
X14385Y-32389D01*
X14409Y-32369D01*
X14436Y-32354D01*
X14466Y-32344D01*
X14497Y-32341D01*
X14527Y-32343D01*
X14557Y-32351D01*
X14585Y-32365D01*
X14610Y-32385D01*
X14630Y-32408D01*
X14646Y-32435D01*
X14656Y-32465D01*
X14659Y-32496D01*
X14660Y-32500D01*
X15660Y-26500D02*
X15656Y-26531D01*
X15647Y-26560D01*
X15633Y-26588D01*
X15613Y-26612D01*
X15589Y-26632D01*
X15562Y-26647D01*
X15532Y-26656D01*
X15501Y-26659D01*
X15471Y-26657D01*
X15441Y-26648D01*
X15413Y-26633D01*
X15389Y-26614D01*
X15368Y-26590D01*
X15353Y-26563D01*
X15344Y-26533D01*
X15341Y-26502D01*
X15343Y-26472D01*
X15352Y-26442D01*
X15366Y-26414D01*
X15385Y-26389D01*
X15409Y-26369D01*
X15436Y-26354D01*
X15466Y-26344D01*
X15497Y-26341D01*
X15527Y-26343D01*
X15557Y-26351D01*
X15585Y-26365D01*
X15610Y-26385D01*
X15630Y-26408D01*
X15646Y-26435D01*
X15656Y-26465D01*
X15659Y-26496D01*
X15660Y-26500D01*
X15660Y-32500D02*
X15656Y-32531D01*
X15647Y-32560D01*
X15633Y-32588D01*
X15613Y-32612D01*
X15589Y-32632D01*
X15562Y-32647D01*
X15532Y-32656D01*
X15501Y-32659D01*
X15471Y-32657D01*
X15441Y-32648D01*
X15413Y-32633D01*
X15389Y-32614D01*
X15368Y-32590D01*
X15353Y-32563D01*
X15344Y-32533D01*
X15341Y-32502D01*
X15343Y-32472D01*
X15352Y-32442D01*
X15366Y-32414D01*
X15385Y-32389D01*
X15409Y-32369D01*
X15436Y-32354D01*
X15466Y-32344D01*
X15497Y-32341D01*
X15527Y-32343D01*
X15557Y-32351D01*
X15585Y-32365D01*
X15610Y-32385D01*
X15630Y-32408D01*
X15646Y-32435D01*
X15656Y-32465D01*
X15659Y-32496D01*
X15660Y-32500D01*
X15910Y-41000D02*
X15906Y-41031D01*
X15897Y-41060D01*
X15883Y-41088D01*
X15863Y-41112D01*
X15839Y-41132D01*
X15812Y-41147D01*
X15782Y-41156D01*
X15751Y-41159D01*
X15721Y-41157D01*
X15691Y-41148D01*
X15663Y-41133D01*
X15639Y-41114D01*
X15618Y-41090D01*
X15603Y-41063D01*
X15594Y-41033D01*
X15591Y-41002D01*
X15593Y-40972D01*
X15602Y-40942D01*
X15616Y-40914D01*
X15635Y-40889D01*
X15659Y-40869D01*
X15686Y-40854D01*
X15716Y-40844D01*
X15747Y-40841D01*
X15777Y-40843D01*
X15807Y-40851D01*
X15835Y-40865D01*
X15860Y-40885D01*
X15880Y-40908D01*
X15896Y-40935D01*
X15906Y-40965D01*
X15909Y-40996D01*
X15910Y-41000D01*
X15910Y-42000D02*
X15906Y-42031D01*
X15897Y-42060D01*
X15883Y-42088D01*
X15863Y-42112D01*
X15839Y-42132D01*
X15812Y-42147D01*
X15782Y-42156D01*
X15751Y-42159D01*
X15721Y-42157D01*
X15691Y-42148D01*
X15663Y-42133D01*
X15639Y-42114D01*
X15618Y-42090D01*
X15603Y-42063D01*
X15594Y-42033D01*
X15591Y-42002D01*
X15593Y-41972D01*
X15602Y-41942D01*
X15616Y-41914D01*
X15635Y-41889D01*
X15659Y-41869D01*
X15686Y-41854D01*
X15716Y-41844D01*
X15747Y-41841D01*
X15777Y-41843D01*
X15807Y-41851D01*
X15835Y-41865D01*
X15860Y-41885D01*
X15880Y-41908D01*
X15896Y-41935D01*
X15906Y-41965D01*
X15909Y-41996D01*
X15910Y-42000D01*
X15910Y-43000D02*
X15906Y-43031D01*
X15897Y-43060D01*
X15883Y-43088D01*
X15863Y-43112D01*
X15839Y-43132D01*
X15812Y-43147D01*
X15782Y-43156D01*
X15751Y-43159D01*
X15721Y-43157D01*
X15691Y-43148D01*
X15663Y-43133D01*
X15639Y-43114D01*
X15618Y-43090D01*
X15603Y-43063D01*
X15594Y-43033D01*
X15591Y-43002D01*
X15593Y-42972D01*
X15602Y-42942D01*
X15616Y-42914D01*
X15635Y-42889D01*
X15659Y-42869D01*
X15686Y-42854D01*
X15716Y-42844D01*
X15747Y-42841D01*
X15777Y-42843D01*
X15807Y-42851D01*
X15835Y-42865D01*
X15860Y-42885D01*
X15880Y-42908D01*
X15896Y-42935D01*
X15906Y-42965D01*
X15909Y-42996D01*
X15910Y-43000D01*
X15910Y-44000D02*
X15906Y-44031D01*
X15897Y-44060D01*
X15883Y-44088D01*
X15863Y-44112D01*
X15839Y-44132D01*
X15812Y-44147D01*
X15782Y-44156D01*
X15751Y-44159D01*
X15721Y-44157D01*
X15691Y-44148D01*
X15663Y-44133D01*
X15639Y-44114D01*
X15618Y-44090D01*
X15603Y-44063D01*
X15594Y-44033D01*
X15591Y-44002D01*
X15593Y-43972D01*
X15602Y-43942D01*
X15616Y-43914D01*
X15635Y-43889D01*
X15659Y-43869D01*
X15686Y-43854D01*
X15716Y-43844D01*
X15747Y-43841D01*
X15777Y-43843D01*
X15807Y-43851D01*
X15835Y-43865D01*
X15860Y-43885D01*
X15880Y-43908D01*
X15896Y-43935D01*
X15906Y-43965D01*
X15909Y-43996D01*
X15910Y-44000D01*
X16660Y-26500D02*
X16656Y-26531D01*
X16647Y-26560D01*
X16633Y-26588D01*
X16613Y-26612D01*
X16589Y-26632D01*
X16562Y-26647D01*
X16532Y-26656D01*
X16501Y-26659D01*
X16471Y-26657D01*
X16441Y-26648D01*
X16413Y-26633D01*
X16389Y-26614D01*
X16368Y-26590D01*
X16353Y-26563D01*
X16344Y-26533D01*
X16341Y-26502D01*
X16343Y-26472D01*
X16352Y-26442D01*
X16366Y-26414D01*
X16385Y-26389D01*
X16409Y-26369D01*
X16436Y-26354D01*
X16466Y-26344D01*
X16497Y-26341D01*
X16527Y-26343D01*
X16557Y-26351D01*
X16585Y-26365D01*
X16610Y-26385D01*
X16630Y-26408D01*
X16646Y-26435D01*
X16656Y-26465D01*
X16659Y-26496D01*
X16660Y-26500D01*
X16660Y-32500D02*
X16656Y-32531D01*
X16647Y-32560D01*
X16633Y-32588D01*
X16613Y-32612D01*
X16589Y-32632D01*
X16562Y-32647D01*
X16532Y-32656D01*
X16501Y-32659D01*
X16471Y-32657D01*
X16441Y-32648D01*
X16413Y-32633D01*
X16389Y-32614D01*
X16368Y-32590D01*
X16353Y-32563D01*
X16344Y-32533D01*
X16341Y-32502D01*
X16343Y-32472D01*
X16352Y-32442D01*
X16366Y-32414D01*
X16385Y-32389D01*
X16409Y-32369D01*
X16436Y-32354D01*
X16466Y-32344D01*
X16497Y-32341D01*
X16527Y-32343D01*
X16557Y-32351D01*
X16585Y-32365D01*
X16610Y-32385D01*
X16630Y-32408D01*
X16646Y-32435D01*
X16656Y-32465D01*
X16659Y-32496D01*
X16660Y-32500D01*
X17660Y-26500D02*
X17656Y-26531D01*
X17647Y-26560D01*
X17633Y-26588D01*
X17613Y-26612D01*
X17589Y-26632D01*
X17562Y-26647D01*
X17532Y-26656D01*
X17501Y-26659D01*
X17471Y-26657D01*
X17441Y-26648D01*
X17413Y-26633D01*
X17389Y-26614D01*
X17368Y-26590D01*
X17353Y-26563D01*
X17344Y-26533D01*
X17341Y-26502D01*
X17343Y-26472D01*
X17352Y-26442D01*
X17366Y-26414D01*
X17385Y-26389D01*
X17409Y-26369D01*
X17436Y-26354D01*
X17466Y-26344D01*
X17497Y-26341D01*
X17527Y-26343D01*
X17557Y-26351D01*
X17585Y-26365D01*
X17610Y-26385D01*
X17630Y-26408D01*
X17646Y-26435D01*
X17656Y-26465D01*
X17659Y-26496D01*
X17660Y-26500D01*
X17660Y-32500D02*
X17656Y-32531D01*
X17647Y-32560D01*
X17633Y-32588D01*
X17613Y-32612D01*
X17589Y-32632D01*
X17562Y-32647D01*
X17532Y-32656D01*
X17501Y-32659D01*
X17471Y-32657D01*
X17441Y-32648D01*
X17413Y-32633D01*
X17389Y-32614D01*
X17368Y-32590D01*
X17353Y-32563D01*
X17344Y-32533D01*
X17341Y-32502D01*
X17343Y-32472D01*
X17352Y-32442D01*
X17366Y-32414D01*
X17385Y-32389D01*
X17409Y-32369D01*
X17436Y-32354D01*
X17466Y-32344D01*
X17497Y-32341D01*
X17527Y-32343D01*
X17557Y-32351D01*
X17585Y-32365D01*
X17610Y-32385D01*
X17630Y-32408D01*
X17646Y-32435D01*
X17656Y-32465D01*
X17659Y-32496D01*
X17660Y-32500D01*
X18660Y-26500D02*
X18656Y-26531D01*
X18647Y-26560D01*
X18633Y-26588D01*
X18613Y-26612D01*
X18589Y-26632D01*
X18562Y-26647D01*
X18532Y-26656D01*
X18501Y-26659D01*
X18471Y-26657D01*
X18441Y-26648D01*
X18413Y-26633D01*
X18389Y-26614D01*
X18368Y-26590D01*
X18353Y-26563D01*
X18344Y-26533D01*
X18341Y-26502D01*
X18343Y-26472D01*
X18352Y-26442D01*
X18366Y-26414D01*
X18385Y-26389D01*
X18409Y-26369D01*
X18436Y-26354D01*
X18466Y-26344D01*
X18497Y-26341D01*
X18527Y-26343D01*
X18557Y-26351D01*
X18585Y-26365D01*
X18610Y-26385D01*
X18630Y-26408D01*
X18646Y-26435D01*
X18656Y-26465D01*
X18659Y-26496D01*
X18660Y-26500D01*
X18660Y-32500D02*
X18656Y-32531D01*
X18647Y-32560D01*
X18633Y-32588D01*
X18613Y-32612D01*
X18589Y-32632D01*
X18562Y-32647D01*
X18532Y-32656D01*
X18501Y-32659D01*
X18471Y-32657D01*
X18441Y-32648D01*
X18413Y-32633D01*
X18389Y-32614D01*
X18368Y-32590D01*
X18353Y-32563D01*
X18344Y-32533D01*
X18341Y-32502D01*
X18343Y-32472D01*
X18352Y-32442D01*
X18366Y-32414D01*
X18385Y-32389D01*
X18409Y-32369D01*
X18436Y-32354D01*
X18466Y-32344D01*
X18497Y-32341D01*
X18527Y-32343D01*
X18557Y-32351D01*
X18585Y-32365D01*
X18610Y-32385D01*
X18630Y-32408D01*
X18646Y-32435D01*
X18656Y-32465D01*
X18659Y-32496D01*
X18660Y-32500D01*
X19160Y-35000D02*
X19156Y-35031D01*
X19147Y-35060D01*
X19133Y-35088D01*
X19113Y-35112D01*
X19089Y-35132D01*
X19062Y-35147D01*
X19032Y-35156D01*
X19001Y-35159D01*
X18971Y-35157D01*
X18941Y-35148D01*
X18913Y-35133D01*
X18889Y-35114D01*
X18868Y-35090D01*
X18853Y-35063D01*
X18844Y-35033D01*
X18841Y-35002D01*
X18843Y-34972D01*
X18852Y-34942D01*
X18866Y-34914D01*
X18885Y-34889D01*
X18909Y-34869D01*
X18936Y-34854D01*
X18966Y-34844D01*
X18997Y-34841D01*
X19027Y-34843D01*
X19057Y-34851D01*
X19085Y-34865D01*
X19110Y-34885D01*
X19130Y-34908D01*
X19146Y-34935D01*
X19156Y-34965D01*
X19159Y-34996D01*
X19160Y-35000D01*
X19160Y-37000D02*
X19156Y-37031D01*
X19147Y-37060D01*
X19133Y-37088D01*
X19113Y-37112D01*
X19089Y-37132D01*
X19062Y-37147D01*
X19032Y-37156D01*
X19001Y-37159D01*
X18971Y-37157D01*
X18941Y-37148D01*
X18913Y-37133D01*
X18889Y-37114D01*
X18868Y-37090D01*
X18853Y-37063D01*
X18844Y-37033D01*
X18841Y-37002D01*
X18843Y-36972D01*
X18852Y-36942D01*
X18866Y-36914D01*
X18885Y-36889D01*
X18909Y-36869D01*
X18936Y-36854D01*
X18966Y-36844D01*
X18997Y-36841D01*
X19027Y-36843D01*
X19057Y-36851D01*
X19085Y-36865D01*
X19110Y-36885D01*
X19130Y-36908D01*
X19146Y-36935D01*
X19156Y-36965D01*
X19159Y-36996D01*
X19160Y-37000D01*
X19160Y-38000D02*
X19156Y-38031D01*
X19147Y-38060D01*
X19133Y-38088D01*
X19113Y-38112D01*
X19089Y-38132D01*
X19062Y-38147D01*
X19032Y-38156D01*
X19001Y-38159D01*
X18971Y-38157D01*
X18941Y-38148D01*
X18913Y-38133D01*
X18889Y-38114D01*
X18868Y-38090D01*
X18853Y-38063D01*
X18844Y-38033D01*
X18841Y-38002D01*
X18843Y-37972D01*
X18852Y-37942D01*
X18866Y-37914D01*
X18885Y-37889D01*
X18909Y-37869D01*
X18936Y-37854D01*
X18966Y-37844D01*
X18997Y-37841D01*
X19027Y-37843D01*
X19057Y-37851D01*
X19085Y-37865D01*
X19110Y-37885D01*
X19130Y-37908D01*
X19146Y-37935D01*
X19156Y-37965D01*
X19159Y-37996D01*
X19160Y-38000D01*
X19660Y-26500D02*
X19656Y-26531D01*
X19647Y-26560D01*
X19633Y-26588D01*
X19613Y-26612D01*
X19589Y-26632D01*
X19562Y-26647D01*
X19532Y-26656D01*
X19501Y-26659D01*
X19471Y-26657D01*
X19441Y-26648D01*
X19413Y-26633D01*
X19389Y-26614D01*
X19368Y-26590D01*
X19353Y-26563D01*
X19344Y-26533D01*
X19341Y-26502D01*
X19343Y-26472D01*
X19352Y-26442D01*
X19366Y-26414D01*
X19385Y-26389D01*
X19409Y-26369D01*
X19436Y-26354D01*
X19466Y-26344D01*
X19497Y-26341D01*
X19527Y-26343D01*
X19557Y-26351D01*
X19585Y-26365D01*
X19610Y-26385D01*
X19630Y-26408D01*
X19646Y-26435D01*
X19656Y-26465D01*
X19659Y-26496D01*
X19660Y-26500D01*
X19660Y-32500D02*
X19656Y-32531D01*
X19647Y-32560D01*
X19633Y-32588D01*
X19613Y-32612D01*
X19589Y-32632D01*
X19562Y-32647D01*
X19532Y-32656D01*
X19501Y-32659D01*
X19471Y-32657D01*
X19441Y-32648D01*
X19413Y-32633D01*
X19389Y-32614D01*
X19368Y-32590D01*
X19353Y-32563D01*
X19344Y-32533D01*
X19341Y-32502D01*
X19343Y-32472D01*
X19352Y-32442D01*
X19366Y-32414D01*
X19385Y-32389D01*
X19409Y-32369D01*
X19436Y-32354D01*
X19466Y-32344D01*
X19497Y-32341D01*
X19527Y-32343D01*
X19557Y-32351D01*
X19585Y-32365D01*
X19610Y-32385D01*
X19630Y-32408D01*
X19646Y-32435D01*
X19656Y-32465D01*
X19659Y-32496D01*
X19660Y-32500D01*
X20660Y-26500D02*
X20656Y-26531D01*
X20647Y-26560D01*
X20633Y-26588D01*
X20613Y-26612D01*
X20589Y-26632D01*
X20562Y-26647D01*
X20532Y-26656D01*
X20501Y-26659D01*
X20471Y-26657D01*
X20441Y-26648D01*
X20413Y-26633D01*
X20389Y-26614D01*
X20368Y-26590D01*
X20353Y-26563D01*
X20344Y-26533D01*
X20341Y-26502D01*
X20343Y-26472D01*
X20352Y-26442D01*
X20366Y-26414D01*
X20385Y-26389D01*
X20409Y-26369D01*
X20436Y-26354D01*
X20466Y-26344D01*
X20497Y-26341D01*
X20527Y-26343D01*
X20557Y-26351D01*
X20585Y-26365D01*
X20610Y-26385D01*
X20630Y-26408D01*
X20646Y-26435D01*
X20656Y-26465D01*
X20659Y-26496D01*
X20660Y-26500D01*
X20660Y-32500D02*
X20656Y-32531D01*
X20647Y-32560D01*
X20633Y-32588D01*
X20613Y-32612D01*
X20589Y-32632D01*
X20562Y-32647D01*
X20532Y-32656D01*
X20501Y-32659D01*
X20471Y-32657D01*
X20441Y-32648D01*
X20413Y-32633D01*
X20389Y-32614D01*
X20368Y-32590D01*
X20353Y-32563D01*
X20344Y-32533D01*
X20341Y-32502D01*
X20343Y-32472D01*
X20352Y-32442D01*
X20366Y-32414D01*
X20385Y-32389D01*
X20409Y-32369D01*
X20436Y-32354D01*
X20466Y-32344D01*
X20497Y-32341D01*
X20527Y-32343D01*
X20557Y-32351D01*
X20585Y-32365D01*
X20610Y-32385D01*
X20630Y-32408D01*
X20646Y-32435D01*
X20656Y-32465D01*
X20659Y-32496D01*
X20660Y-32500D01*
X21160Y-35000D02*
X21156Y-35031D01*
X21147Y-35060D01*
X21133Y-35088D01*
X21113Y-35112D01*
X21089Y-35132D01*
X21062Y-35147D01*
X21032Y-35156D01*
X21001Y-35159D01*
X20971Y-35157D01*
X20941Y-35148D01*
X20913Y-35133D01*
X20889Y-35114D01*
X20868Y-35090D01*
X20853Y-35063D01*
X20844Y-35033D01*
X20841Y-35002D01*
X20843Y-34972D01*
X20852Y-34942D01*
X20866Y-34914D01*
X20885Y-34889D01*
X20909Y-34869D01*
X20936Y-34854D01*
X20966Y-34844D01*
X20997Y-34841D01*
X21027Y-34843D01*
X21057Y-34851D01*
X21085Y-34865D01*
X21110Y-34885D01*
X21130Y-34908D01*
X21146Y-34935D01*
X21156Y-34965D01*
X21159Y-34996D01*
X21160Y-35000D01*
X21160Y-37000D02*
X21156Y-37031D01*
X21147Y-37060D01*
X21133Y-37088D01*
X21113Y-37112D01*
X21089Y-37132D01*
X21062Y-37147D01*
X21032Y-37156D01*
X21001Y-37159D01*
X20971Y-37157D01*
X20941Y-37148D01*
X20913Y-37133D01*
X20889Y-37114D01*
X20868Y-37090D01*
X20853Y-37063D01*
X20844Y-37033D01*
X20841Y-37002D01*
X20843Y-36972D01*
X20852Y-36942D01*
X20866Y-36914D01*
X20885Y-36889D01*
X20909Y-36869D01*
X20936Y-36854D01*
X20966Y-36844D01*
X20997Y-36841D01*
X21027Y-36843D01*
X21057Y-36851D01*
X21085Y-36865D01*
X21110Y-36885D01*
X21130Y-36908D01*
X21146Y-36935D01*
X21156Y-36965D01*
X21159Y-36996D01*
X21160Y-37000D01*
X21160Y-38000D02*
X21156Y-38031D01*
X21147Y-38060D01*
X21133Y-38088D01*
X21113Y-38112D01*
X21089Y-38132D01*
X21062Y-38147D01*
X21032Y-38156D01*
X21001Y-38159D01*
X20971Y-38157D01*
X20941Y-38148D01*
X20913Y-38133D01*
X20889Y-38114D01*
X20868Y-38090D01*
X20853Y-38063D01*
X20844Y-38033D01*
X20841Y-38002D01*
X20843Y-37972D01*
X20852Y-37942D01*
X20866Y-37914D01*
X20885Y-37889D01*
X20909Y-37869D01*
X20936Y-37854D01*
X20966Y-37844D01*
X20997Y-37841D01*
X21027Y-37843D01*
X21057Y-37851D01*
X21085Y-37865D01*
X21110Y-37885D01*
X21130Y-37908D01*
X21146Y-37935D01*
X21156Y-37965D01*
X21159Y-37996D01*
X21160Y-38000D01*
X21660Y-26500D02*
X21656Y-26531D01*
X21647Y-26560D01*
X21633Y-26588D01*
X21613Y-26612D01*
X21589Y-26632D01*
X21562Y-26647D01*
X21532Y-26656D01*
X21501Y-26659D01*
X21471Y-26657D01*
X21441Y-26648D01*
X21413Y-26633D01*
X21389Y-26614D01*
X21368Y-26590D01*
X21353Y-26563D01*
X21344Y-26533D01*
X21341Y-26502D01*
X21343Y-26472D01*
X21352Y-26442D01*
X21366Y-26414D01*
X21385Y-26389D01*
X21409Y-26369D01*
X21436Y-26354D01*
X21466Y-26344D01*
X21497Y-26341D01*
X21527Y-26343D01*
X21557Y-26351D01*
X21585Y-26365D01*
X21610Y-26385D01*
X21630Y-26408D01*
X21646Y-26435D01*
X21656Y-26465D01*
X21659Y-26496D01*
X21660Y-26500D01*
X21660Y-32500D02*
X21656Y-32531D01*
X21647Y-32560D01*
X21633Y-32588D01*
X21613Y-32612D01*
X21589Y-32632D01*
X21562Y-32647D01*
X21532Y-32656D01*
X21501Y-32659D01*
X21471Y-32657D01*
X21441Y-32648D01*
X21413Y-32633D01*
X21389Y-32614D01*
X21368Y-32590D01*
X21353Y-32563D01*
X21344Y-32533D01*
X21341Y-32502D01*
X21343Y-32472D01*
X21352Y-32442D01*
X21366Y-32414D01*
X21385Y-32389D01*
X21409Y-32369D01*
X21436Y-32354D01*
X21466Y-32344D01*
X21497Y-32341D01*
X21527Y-32343D01*
X21557Y-32351D01*
X21585Y-32365D01*
X21610Y-32385D01*
X21630Y-32408D01*
X21646Y-32435D01*
X21656Y-32465D01*
X21659Y-32496D01*
X21660Y-32500D01*
X22660Y-26500D02*
X22656Y-26531D01*
X22647Y-26560D01*
X22633Y-26588D01*
X22613Y-26612D01*
X22589Y-26632D01*
X22562Y-26647D01*
X22532Y-26656D01*
X22501Y-26659D01*
X22471Y-26657D01*
X22441Y-26648D01*
X22413Y-26633D01*
X22389Y-26614D01*
X22368Y-26590D01*
X22353Y-26563D01*
X22344Y-26533D01*
X22341Y-26502D01*
X22343Y-26472D01*
X22352Y-26442D01*
X22366Y-26414D01*
X22385Y-26389D01*
X22409Y-26369D01*
X22436Y-26354D01*
X22466Y-26344D01*
X22497Y-26341D01*
X22527Y-26343D01*
X22557Y-26351D01*
X22585Y-26365D01*
X22610Y-26385D01*
X22630Y-26408D01*
X22646Y-26435D01*
X22656Y-26465D01*
X22659Y-26496D01*
X22660Y-26500D01*
X22660Y-32500D02*
X22656Y-32531D01*
X22647Y-32560D01*
X22633Y-32588D01*
X22613Y-32612D01*
X22589Y-32632D01*
X22562Y-32647D01*
X22532Y-32656D01*
X22501Y-32659D01*
X22471Y-32657D01*
X22441Y-32648D01*
X22413Y-32633D01*
X22389Y-32614D01*
X22368Y-32590D01*
X22353Y-32563D01*
X22344Y-32533D01*
X22341Y-32502D01*
X22343Y-32472D01*
X22352Y-32442D01*
X22366Y-32414D01*
X22385Y-32389D01*
X22409Y-32369D01*
X22436Y-32354D01*
X22466Y-32344D01*
X22497Y-32341D01*
X22527Y-32343D01*
X22557Y-32351D01*
X22585Y-32365D01*
X22610Y-32385D01*
X22630Y-32408D01*
X22646Y-32435D01*
X22656Y-32465D01*
X22659Y-32496D01*
X22660Y-32500D01*
X23660Y-26500D02*
X23656Y-26531D01*
X23647Y-26560D01*
X23633Y-26588D01*
X23613Y-26612D01*
X23589Y-26632D01*
X23562Y-26647D01*
X23532Y-26656D01*
X23501Y-26659D01*
X23471Y-26657D01*
X23441Y-26648D01*
X23413Y-26633D01*
X23389Y-26614D01*
X23368Y-26590D01*
X23353Y-26563D01*
X23344Y-26533D01*
X23341Y-26502D01*
X23343Y-26472D01*
X23352Y-26442D01*
X23366Y-26414D01*
X23385Y-26389D01*
X23409Y-26369D01*
X23436Y-26354D01*
X23466Y-26344D01*
X23497Y-26341D01*
X23527Y-26343D01*
X23557Y-26351D01*
X23585Y-26365D01*
X23610Y-26385D01*
X23630Y-26408D01*
X23646Y-26435D01*
X23656Y-26465D01*
X23659Y-26496D01*
X23660Y-26500D01*
X23660Y-32500D02*
X23656Y-32531D01*
X23647Y-32560D01*
X23633Y-32588D01*
X23613Y-32612D01*
X23589Y-32632D01*
X23562Y-32647D01*
X23532Y-32656D01*
X23501Y-32659D01*
X23471Y-32657D01*
X23441Y-32648D01*
X23413Y-32633D01*
X23389Y-32614D01*
X23368Y-32590D01*
X23353Y-32563D01*
X23344Y-32533D01*
X23341Y-32502D01*
X23343Y-32472D01*
X23352Y-32442D01*
X23366Y-32414D01*
X23385Y-32389D01*
X23409Y-32369D01*
X23436Y-32354D01*
X23466Y-32344D01*
X23497Y-32341D01*
X23527Y-32343D01*
X23557Y-32351D01*
X23585Y-32365D01*
X23610Y-32385D01*
X23630Y-32408D01*
X23646Y-32435D01*
X23656Y-32465D01*
X23659Y-32496D01*
X23660Y-32500D01*
X24660Y-26500D02*
X24656Y-26531D01*
X24647Y-26560D01*
X24633Y-26588D01*
X24613Y-26612D01*
X24589Y-26632D01*
X24562Y-26647D01*
X24532Y-26656D01*
X24501Y-26659D01*
X24471Y-26657D01*
X24441Y-26648D01*
X24413Y-26633D01*
X24389Y-26614D01*
X24368Y-26590D01*
X24353Y-26563D01*
X24344Y-26533D01*
X24341Y-26502D01*
X24343Y-26472D01*
X24352Y-26442D01*
X24366Y-26414D01*
X24385Y-26389D01*
X24409Y-26369D01*
X24436Y-26354D01*
X24466Y-26344D01*
X24497Y-26341D01*
X24527Y-26343D01*
X24557Y-26351D01*
X24585Y-26365D01*
X24610Y-26385D01*
X24630Y-26408D01*
X24646Y-26435D01*
X24656Y-26465D01*
X24659Y-26496D01*
X24660Y-26500D01*
X24660Y-32500D02*
X24656Y-32531D01*
X24647Y-32560D01*
X24633Y-32588D01*
X24613Y-32612D01*
X24589Y-32632D01*
X24562Y-32647D01*
X24532Y-32656D01*
X24501Y-32659D01*
X24471Y-32657D01*
X24441Y-32648D01*
X24413Y-32633D01*
X24389Y-32614D01*
X24368Y-32590D01*
X24353Y-32563D01*
X24344Y-32533D01*
X24341Y-32502D01*
X24343Y-32472D01*
X24352Y-32442D01*
X24366Y-32414D01*
X24385Y-32389D01*
X24409Y-32369D01*
X24436Y-32354D01*
X24466Y-32344D01*
X24497Y-32341D01*
X24527Y-32343D01*
X24557Y-32351D01*
X24585Y-32365D01*
X24610Y-32385D01*
X24630Y-32408D01*
X24646Y-32435D01*
X24656Y-32465D01*
X24659Y-32496D01*
X24660Y-32500D01*
X25660Y-26500D02*
X25656Y-26531D01*
X25647Y-26560D01*
X25633Y-26588D01*
X25613Y-26612D01*
X25589Y-26632D01*
X25562Y-26647D01*
X25532Y-26656D01*
X25501Y-26659D01*
X25471Y-26657D01*
X25441Y-26648D01*
X25413Y-26633D01*
X25389Y-26614D01*
X25368Y-26590D01*
X25353Y-26563D01*
X25344Y-26533D01*
X25341Y-26502D01*
X25343Y-26472D01*
X25352Y-26442D01*
X25366Y-26414D01*
X25385Y-26389D01*
X25409Y-26369D01*
X25436Y-26354D01*
X25466Y-26344D01*
X25497Y-26341D01*
X25527Y-26343D01*
X25557Y-26351D01*
X25585Y-26365D01*
X25610Y-26385D01*
X25630Y-26408D01*
X25646Y-26435D01*
X25656Y-26465D01*
X25659Y-26496D01*
X25660Y-26500D01*
X25660Y-32500D02*
X25656Y-32531D01*
X25647Y-32560D01*
X25633Y-32588D01*
X25613Y-32612D01*
X25589Y-32632D01*
X25562Y-32647D01*
X25532Y-32656D01*
X25501Y-32659D01*
X25471Y-32657D01*
X25441Y-32648D01*
X25413Y-32633D01*
X25389Y-32614D01*
X25368Y-32590D01*
X25353Y-32563D01*
X25344Y-32533D01*
X25341Y-32502D01*
X25343Y-32472D01*
X25352Y-32442D01*
X25366Y-32414D01*
X25385Y-32389D01*
X25409Y-32369D01*
X25436Y-32354D01*
X25466Y-32344D01*
X25497Y-32341D01*
X25527Y-32343D01*
X25557Y-32351D01*
X25585Y-32365D01*
X25610Y-32385D01*
X25630Y-32408D01*
X25646Y-32435D01*
X25656Y-32465D01*
X25659Y-32496D01*
X25660Y-32500D01*
X26660Y-26500D02*
X26656Y-26531D01*
X26647Y-26560D01*
X26633Y-26588D01*
X26613Y-26612D01*
X26589Y-26632D01*
X26562Y-26647D01*
X26532Y-26656D01*
X26501Y-26659D01*
X26471Y-26657D01*
X26441Y-26648D01*
X26413Y-26633D01*
X26389Y-26614D01*
X26368Y-26590D01*
X26353Y-26563D01*
X26344Y-26533D01*
X26341Y-26502D01*
X26343Y-26472D01*
X26352Y-26442D01*
X26366Y-26414D01*
X26385Y-26389D01*
X26409Y-26369D01*
X26436Y-26354D01*
X26466Y-26344D01*
X26497Y-26341D01*
X26527Y-26343D01*
X26557Y-26351D01*
X26585Y-26365D01*
X26610Y-26385D01*
X26630Y-26408D01*
X26646Y-26435D01*
X26656Y-26465D01*
X26659Y-26496D01*
X26660Y-26500D01*
X26660Y-32500D02*
X26656Y-32531D01*
X26647Y-32560D01*
X26633Y-32588D01*
X26613Y-32612D01*
X26589Y-32632D01*
X26562Y-32647D01*
X26532Y-32656D01*
X26501Y-32659D01*
X26471Y-32657D01*
X26441Y-32648D01*
X26413Y-32633D01*
X26389Y-32614D01*
X26368Y-32590D01*
X26353Y-32563D01*
X26344Y-32533D01*
X26341Y-32502D01*
X26343Y-32472D01*
X26352Y-32442D01*
X26366Y-32414D01*
X26385Y-32389D01*
X26409Y-32369D01*
X26436Y-32354D01*
X26466Y-32344D01*
X26497Y-32341D01*
X26527Y-32343D01*
X26557Y-32351D01*
X26585Y-32365D01*
X26610Y-32385D01*
X26630Y-32408D01*
X26646Y-32435D01*
X26656Y-32465D01*
X26659Y-32496D01*
X26660Y-32500D01*
X27160Y-42000D02*
X27156Y-42031D01*
X27147Y-42060D01*
X27133Y-42088D01*
X27113Y-42112D01*
X27089Y-42132D01*
X27062Y-42147D01*
X27032Y-42156D01*
X27001Y-42159D01*
X26971Y-42157D01*
X26941Y-42148D01*
X26913Y-42133D01*
X26889Y-42114D01*
X26868Y-42090D01*
X26853Y-42063D01*
X26844Y-42033D01*
X26841Y-42002D01*
X26843Y-41972D01*
X26852Y-41942D01*
X26866Y-41914D01*
X26885Y-41889D01*
X26909Y-41869D01*
X26936Y-41854D01*
X26966Y-41844D01*
X26997Y-41841D01*
X27027Y-41843D01*
X27057Y-41851D01*
X27085Y-41865D01*
X27110Y-41885D01*
X27130Y-41908D01*
X27146Y-41935D01*
X27156Y-41965D01*
X27159Y-41996D01*
X27160Y-42000D01*
X27160Y-43000D02*
X27156Y-43031D01*
X27147Y-43060D01*
X27133Y-43088D01*
X27113Y-43112D01*
X27089Y-43132D01*
X27062Y-43147D01*
X27032Y-43156D01*
X27001Y-43159D01*
X26971Y-43157D01*
X26941Y-43148D01*
X26913Y-43133D01*
X26889Y-43114D01*
X26868Y-43090D01*
X26853Y-43063D01*
X26844Y-43033D01*
X26841Y-43002D01*
X26843Y-42972D01*
X26852Y-42942D01*
X26866Y-42914D01*
X26885Y-42889D01*
X26909Y-42869D01*
X26936Y-42854D01*
X26966Y-42844D01*
X26997Y-42841D01*
X27027Y-42843D01*
X27057Y-42851D01*
X27085Y-42865D01*
X27110Y-42885D01*
X27130Y-42908D01*
X27146Y-42935D01*
X27156Y-42965D01*
X27159Y-42996D01*
X27160Y-43000D01*
X27160Y-44000D02*
X27156Y-44031D01*
X27147Y-44060D01*
X27133Y-44088D01*
X27113Y-44112D01*
X27089Y-44132D01*
X27062Y-44147D01*
X27032Y-44156D01*
X27001Y-44159D01*
X26971Y-44157D01*
X26941Y-44148D01*
X26913Y-44133D01*
X26889Y-44114D01*
X26868Y-44090D01*
X26853Y-44063D01*
X26844Y-44033D01*
X26841Y-44002D01*
X26843Y-43972D01*
X26852Y-43942D01*
X26866Y-43914D01*
X26885Y-43889D01*
X26909Y-43869D01*
X26936Y-43854D01*
X26966Y-43844D01*
X26997Y-43841D01*
X27027Y-43843D01*
X27057Y-43851D01*
X27085Y-43865D01*
X27110Y-43885D01*
X27130Y-43908D01*
X27146Y-43935D01*
X27156Y-43965D01*
X27159Y-43996D01*
X27160Y-44000D01*
X27160Y-45000D02*
X27156Y-45031D01*
X27147Y-45060D01*
X27133Y-45088D01*
X27113Y-45112D01*
X27089Y-45132D01*
X27062Y-45147D01*
X27032Y-45156D01*
X27001Y-45159D01*
X26971Y-45157D01*
X26941Y-45148D01*
X26913Y-45133D01*
X26889Y-45114D01*
X26868Y-45090D01*
X26853Y-45063D01*
X26844Y-45033D01*
X26841Y-45002D01*
X26843Y-44972D01*
X26852Y-44942D01*
X26866Y-44914D01*
X26885Y-44889D01*
X26909Y-44869D01*
X26936Y-44854D01*
X26966Y-44844D01*
X26997Y-44841D01*
X27027Y-44843D01*
X27057Y-44851D01*
X27085Y-44865D01*
X27110Y-44885D01*
X27130Y-44908D01*
X27146Y-44935D01*
X27156Y-44965D01*
X27159Y-44996D01*
X27160Y-45000D01*
X27660Y-26500D02*
X27656Y-26531D01*
X27647Y-26560D01*
X27633Y-26588D01*
X27613Y-26612D01*
X27589Y-26632D01*
X27562Y-26647D01*
X27532Y-26656D01*
X27501Y-26659D01*
X27471Y-26657D01*
X27441Y-26648D01*
X27413Y-26633D01*
X27389Y-26614D01*
X27368Y-26590D01*
X27353Y-26563D01*
X27344Y-26533D01*
X27341Y-26502D01*
X27343Y-26472D01*
X27352Y-26442D01*
X27366Y-26414D01*
X27385Y-26389D01*
X27409Y-26369D01*
X27436Y-26354D01*
X27466Y-26344D01*
X27497Y-26341D01*
X27527Y-26343D01*
X27557Y-26351D01*
X27585Y-26365D01*
X27610Y-26385D01*
X27630Y-26408D01*
X27646Y-26435D01*
X27656Y-26465D01*
X27659Y-26496D01*
X27660Y-26500D01*
X27660Y-32500D02*
X27656Y-32531D01*
X27647Y-32560D01*
X27633Y-32588D01*
X27613Y-32612D01*
X27589Y-32632D01*
X27562Y-32647D01*
X27532Y-32656D01*
X27501Y-32659D01*
X27471Y-32657D01*
X27441Y-32648D01*
X27413Y-32633D01*
X27389Y-32614D01*
X27368Y-32590D01*
X27353Y-32563D01*
X27344Y-32533D01*
X27341Y-32502D01*
X27343Y-32472D01*
X27352Y-32442D01*
X27366Y-32414D01*
X27385Y-32389D01*
X27409Y-32369D01*
X27436Y-32354D01*
X27466Y-32344D01*
X27497Y-32341D01*
X27527Y-32343D01*
X27557Y-32351D01*
X27585Y-32365D01*
X27610Y-32385D01*
X27630Y-32408D01*
X27646Y-32435D01*
X27656Y-32465D01*
X27659Y-32496D01*
X27660Y-32500D01*
X30160Y-42000D02*
X30156Y-42031D01*
X30147Y-42060D01*
X30133Y-42088D01*
X30113Y-42112D01*
X30089Y-42132D01*
X30062Y-42147D01*
X30032Y-42156D01*
X30001Y-42159D01*
X29971Y-42157D01*
X29941Y-42148D01*
X29913Y-42133D01*
X29889Y-42114D01*
X29868Y-42090D01*
X29853Y-42063D01*
X29844Y-42033D01*
X29841Y-42002D01*
X29843Y-41972D01*
X29852Y-41942D01*
X29866Y-41914D01*
X29885Y-41889D01*
X29909Y-41869D01*
X29936Y-41854D01*
X29966Y-41844D01*
X29997Y-41841D01*
X30027Y-41843D01*
X30057Y-41851D01*
X30085Y-41865D01*
X30110Y-41885D01*
X30130Y-41908D01*
X30146Y-41935D01*
X30156Y-41965D01*
X30159Y-41996D01*
X30160Y-42000D01*
X30160Y-43000D02*
X30156Y-43031D01*
X30147Y-43060D01*
X30133Y-43088D01*
X30113Y-43112D01*
X30089Y-43132D01*
X30062Y-43147D01*
X30032Y-43156D01*
X30001Y-43159D01*
X29971Y-43157D01*
X29941Y-43148D01*
X29913Y-43133D01*
X29889Y-43114D01*
X29868Y-43090D01*
X29853Y-43063D01*
X29844Y-43033D01*
X29841Y-43002D01*
X29843Y-42972D01*
X29852Y-42942D01*
X29866Y-42914D01*
X29885Y-42889D01*
X29909Y-42869D01*
X29936Y-42854D01*
X29966Y-42844D01*
X29997Y-42841D01*
X30027Y-42843D01*
X30057Y-42851D01*
X30085Y-42865D01*
X30110Y-42885D01*
X30130Y-42908D01*
X30146Y-42935D01*
X30156Y-42965D01*
X30159Y-42996D01*
X30160Y-43000D01*
X30160Y-44000D02*
X30156Y-44031D01*
X30147Y-44060D01*
X30133Y-44088D01*
X30113Y-44112D01*
X30089Y-44132D01*
X30062Y-44147D01*
X30032Y-44156D01*
X30001Y-44159D01*
X29971Y-44157D01*
X29941Y-44148D01*
X29913Y-44133D01*
X29889Y-44114D01*
X29868Y-44090D01*
X29853Y-44063D01*
X29844Y-44033D01*
X29841Y-44002D01*
X29843Y-43972D01*
X29852Y-43942D01*
X29866Y-43914D01*
X29885Y-43889D01*
X29909Y-43869D01*
X29936Y-43854D01*
X29966Y-43844D01*
X29997Y-43841D01*
X30027Y-43843D01*
X30057Y-43851D01*
X30085Y-43865D01*
X30110Y-43885D01*
X30130Y-43908D01*
X30146Y-43935D01*
X30156Y-43965D01*
X30159Y-43996D01*
X30160Y-44000D01*
X30160Y-45000D02*
X30156Y-45031D01*
X30147Y-45060D01*
X30133Y-45088D01*
X30113Y-45112D01*
X30089Y-45132D01*
X30062Y-45147D01*
X30032Y-45156D01*
X30001Y-45159D01*
X29971Y-45157D01*
X29941Y-45148D01*
X29913Y-45133D01*
X29889Y-45114D01*
X29868Y-45090D01*
X29853Y-45063D01*
X29844Y-45033D01*
X29841Y-45002D01*
X29843Y-44972D01*
X29852Y-44942D01*
X29866Y-44914D01*
X29885Y-44889D01*
X29909Y-44869D01*
X29936Y-44854D01*
X29966Y-44844D01*
X29997Y-44841D01*
X30027Y-44843D01*
X30057Y-44851D01*
X30085Y-44865D01*
X30110Y-44885D01*
X30130Y-44908D01*
X30146Y-44935D01*
X30156Y-44965D01*
X30159Y-44996D01*
X30160Y-45000D01*
X07500Y-09800D02*
X07500Y-10200D01*
X07700Y-10000D02*
X07300Y-10000D01*
X07500Y-10800D02*
X07500Y-11200D01*
X07700Y-11000D02*
X07300Y-11000D01*
X08500Y-09800D02*
X08500Y-10200D01*
X08700Y-10000D02*
X08300Y-10000D01*
X08500Y-10800D02*
X08500Y-11200D01*
X08700Y-11000D02*
X08300Y-11000D01*
X08500Y-36800D02*
X08500Y-37200D01*
X08700Y-37000D02*
X08300Y-37000D01*
X08500Y-37800D02*
X08500Y-38200D01*
X08700Y-38000D02*
X08300Y-38000D01*
X09500Y-09800D02*
X09500Y-10200D01*
X09700Y-10000D02*
X09300Y-10000D01*
X09500Y-10800D02*
X09500Y-11200D01*
X09700Y-11000D02*
X09300Y-11000D01*
X09500Y-36800D02*
X09500Y-37200D01*
X09700Y-37000D02*
X09300Y-37000D01*
X09500Y-37800D02*
X09500Y-38200D01*
X09700Y-38000D02*
X09300Y-38000D01*
X10500Y-36800D02*
X10500Y-37200D01*
X10700Y-37000D02*
X10300Y-37000D01*
X10500Y-37800D02*
X10500Y-38200D01*
X10700Y-38000D02*
X10300Y-38000D01*
X13500Y-09800D02*
X13500Y-10200D01*
X13700Y-10000D02*
X13300Y-10000D01*
X13500Y-10800D02*
X13500Y-11200D01*
X13700Y-11000D02*
X13300Y-11000D01*
X14500Y-09800D02*
X14500Y-10200D01*
X14700Y-10000D02*
X14300Y-10000D01*
X14500Y-10800D02*
X14500Y-11200D01*
X14700Y-11000D02*
X14300Y-11000D01*
X15500Y-09800D02*
X15500Y-10200D01*
X15700Y-10000D02*
X15300Y-10000D01*
X15500Y-10800D02*
X15500Y-11200D01*
X15700Y-11000D02*
X15300Y-11000D01*
X19500Y-09800D02*
X19500Y-10200D01*
X19700Y-10000D02*
X19300Y-10000D01*
X19500Y-10800D02*
X19500Y-11200D01*
X19700Y-11000D02*
X19300Y-11000D01*
X20500Y-09800D02*
X20500Y-10200D01*
X20700Y-10000D02*
X20300Y-10000D01*
X20500Y-10800D02*
X20500Y-11200D01*
X20700Y-11000D02*
X20300Y-11000D01*
X21000Y-41800D02*
X21000Y-42200D01*
X21200Y-42000D02*
X20800Y-42000D01*
X21000Y-42800D02*
X21000Y-43200D01*
X21200Y-43000D02*
X20800Y-43000D01*
X21500Y-09800D02*
X21500Y-10200D01*
X21700Y-10000D02*
X21300Y-10000D01*
X21500Y-10800D02*
X21500Y-11200D01*
X21700Y-11000D02*
X21300Y-11000D01*
X21500Y-20800D02*
X21500Y-21200D01*
X21700Y-21000D02*
X21300Y-21000D01*
X21500Y-21800D02*
X21500Y-22200D01*
X21700Y-22000D02*
X21300Y-22000D01*
X22000Y-41800D02*
X22000Y-42200D01*
X22200Y-42000D02*
X21800Y-42000D01*
X22000Y-42800D02*
X22000Y-43200D01*
X22200Y-43000D02*
X21800Y-43000D01*
X22500Y-20800D02*
X22500Y-21200D01*
X22700Y-21000D02*
X22300Y-21000D01*
X22500Y-21800D02*
X22500Y-22200D01*
X22700Y-22000D02*
X22300Y-22000D01*
X23000Y-41800D02*
X23000Y-42200D01*
X23200Y-42000D02*
X22800Y-42000D01*
X23000Y-42800D02*
X23000Y-43200D01*
X23200Y-43000D02*
X22800Y-43000D01*
X23500Y-20800D02*
X23500Y-21200D01*
X23700Y-21000D02*
X23300Y-21000D01*
X23500Y-21800D02*
X23500Y-22200D01*
X23700Y-22000D02*
X23300Y-22000D01*
X24500Y-20800D02*
X24500Y-21200D01*
X24700Y-21000D02*
X24300Y-21000D01*
X24500Y-21800D02*
X24500Y-22200D01*
X24700Y-22000D02*
X24300Y-22000D01*
X25500Y-09800D02*
X25500Y-10200D01*
X25700Y-10000D02*
X25300Y-10000D01*
X25500Y-10800D02*
X25500Y-11200D01*
X25700Y-11000D02*
X25300Y-11000D01*
X25500Y-20800D02*
X25500Y-21200D01*
X25700Y-21000D02*
X25300Y-21000D01*
X25500Y-21800D02*
X25500Y-22200D01*
X25700Y-22000D02*
X25300Y-22000D01*
X26500Y-09800D02*
X26500Y-10200D01*
X26700Y-10000D02*
X26300Y-10000D01*
X26500Y-10800D02*
X26500Y-11200D01*
X26700Y-11000D02*
X26300Y-11000D01*
X27500Y-09800D02*
X27500Y-10200D01*
X27700Y-10000D02*
X27300Y-10000D01*
X27500Y-10800D02*
X27500Y-11200D01*
X27700Y-11000D02*
X27300Y-11000D01*
X30250Y-28300D02*
X30250Y-28700D01*
X30450Y-28500D02*
X30050Y-28500D01*
X30250Y-29300D02*
X30250Y-29700D01*
X30450Y-29500D02*
X30050Y-29500D01*
X30250Y-30300D02*
X30250Y-30700D01*
X30450Y-30500D02*
X30050Y-30500D01*
X31500Y-20800D02*
X31500Y-21200D01*
X31700Y-21000D02*
X31300Y-21000D01*
X31500Y-21800D02*
X31500Y-22200D01*
X31700Y-22000D02*
X31300Y-22000D01*
X32500Y-20800D02*
X32500Y-21200D01*
X32700Y-21000D02*
X32300Y-21000D01*
X32500Y-21800D02*
X32500Y-22200D01*
X32700Y-22000D02*
X32300Y-22000D01*
X33500Y-20800D02*
X33500Y-21200D01*
X33700Y-21000D02*
X33300Y-21000D01*
X33500Y-21800D02*
X33500Y-22200D01*
X33700Y-22000D02*
X33300Y-22000D01*
X34500Y-11300D02*
X34500Y-11700D01*
X34700Y-11500D02*
X34300Y-11500D01*
X34500Y-13300D02*
X34500Y-13700D01*
X34700Y-13500D02*
X34300Y-13500D01*
X34500Y-34800D02*
X34500Y-35200D01*
X34700Y-35000D02*
X34300Y-35000D01*
X34500Y-36800D02*
X34500Y-37200D01*
X34700Y-37000D02*
X34300Y-37000D01*
X07600Y-07000D02*
X07588Y-07116D01*
X07554Y-07228D01*
X07499Y-07332D01*
X07425Y-07422D01*
X07335Y-07497D01*
X07232Y-07553D01*
X07120Y-07587D01*
X07004Y-07599D01*
X06888Y-07589D01*
X06776Y-07556D01*
X06672Y-07502D01*
X06581Y-07428D01*
X06505Y-07338D01*
X06449Y-07236D01*
X06414Y-07124D01*
X06401Y-07008D01*
X06410Y-06892D01*
X06443Y-06780D01*
X06496Y-06675D01*
X06569Y-06584D01*
X06658Y-06508D01*
X06760Y-06451D01*
X06872Y-06414D01*
X06988Y-06401D01*
X07104Y-06410D01*
X07216Y-06441D01*
X07321Y-06494D01*
X07413Y-06566D01*
X07490Y-06655D01*
X07548Y-06756D01*
X07585Y-06868D01*
X07599Y-06984D01*
X07600Y-07000D01*
X06400Y-06400D02*
X07600Y-07600D01*
X07600Y-06400D02*
X06400Y-07600D01*
X08600Y-43500D02*
X08588Y-43616D01*
X08554Y-43728D01*
X08499Y-43832D01*
X08425Y-43922D01*
X08335Y-43997D01*
X08232Y-44053D01*
X08120Y-44087D01*
X08004Y-44099D01*
X07888Y-44089D01*
X07776Y-44056D01*
X07672Y-44002D01*
X07581Y-43928D01*
X07505Y-43838D01*
X07449Y-43736D01*
X07414Y-43624D01*
X07401Y-43508D01*
X07410Y-43392D01*
X07443Y-43280D01*
X07496Y-43175D01*
X07569Y-43084D01*
X07658Y-43008D01*
X07760Y-42951D01*
X07872Y-42914D01*
X07988Y-42901D01*
X08104Y-42910D01*
X08216Y-42941D01*
X08321Y-42994D01*
X08413Y-43066D01*
X08490Y-43155D01*
X08548Y-43256D01*
X08585Y-43368D01*
X08599Y-43484D01*
X08600Y-43500D01*
X07400Y-42900D02*
X08600Y-44100D01*
X08600Y-42900D02*
X07400Y-44100D01*
X35100Y-07000D02*
X35088Y-07116D01*
X35054Y-07228D01*
X34999Y-07332D01*
X34925Y-07422D01*
X34835Y-07497D01*
X34732Y-07553D01*
X34620Y-07587D01*
X34504Y-07599D01*
X34388Y-07589D01*
X34276Y-07556D01*
X34172Y-07502D01*
X34081Y-07428D01*
X34005Y-07338D01*
X33949Y-07236D01*
X33914Y-07124D01*
X33901Y-07008D01*
X33910Y-06892D01*
X33943Y-06780D01*
X33996Y-06675D01*
X34069Y-06584D01*
X34158Y-06508D01*
X34260Y-06451D01*
X34372Y-06414D01*
X34488Y-06401D01*
X34604Y-06410D01*
X34716Y-06441D01*
X34821Y-06494D01*
X34913Y-06566D01*
X34990Y-06655D01*
X35048Y-06756D01*
X35085Y-06868D01*
X35099Y-06984D01*
X35100Y-07000D01*
X33900Y-06400D02*
X35100Y-07600D01*
X35100Y-06400D02*
X33900Y-07600D01*
X35100Y-43500D02*
X35088Y-43616D01*
X35054Y-43728D01*
X34999Y-43832D01*
X34925Y-43922D01*
X34835Y-43997D01*
X34732Y-44053D01*
X34620Y-44087D01*
X34504Y-44099D01*
X34388Y-44089D01*
X34276Y-44056D01*
X34172Y-44002D01*
X34081Y-43928D01*
X34005Y-43838D01*
X33949Y-43736D01*
X33914Y-43624D01*
X33901Y-43508D01*
X33910Y-43392D01*
X33943Y-43280D01*
X33996Y-43175D01*
X34069Y-43084D01*
X34158Y-43008D01*
X34260Y-42951D01*
X34372Y-42914D01*
X34488Y-42901D01*
X34604Y-42910D01*
X34716Y-42941D01*
X34821Y-42994D01*
X34913Y-43066D01*
X34990Y-43155D01*
X35048Y-43256D01*
X35085Y-43368D01*
X35099Y-43484D01*
X35100Y-43500D01*
X33900Y-42900D02*
X35100Y-44100D01*
X35100Y-42900D02*
X33900Y-44100D01*
G54D12*
X05814Y-47780D02*
X05814Y-46980D01*
X06005Y-46980D01*
X06119Y-47018D01*
X06195Y-47094D01*
X06234Y-47170D01*
X06272Y-47323D01*
X06272Y-47437D01*
X06234Y-47589D01*
X06195Y-47666D01*
X06119Y-47742D01*
X06005Y-47780D01*
X05814Y-47780D01*
X06614Y-47780D02*
X06614Y-47246D01*
X06614Y-47399D02*
X06653Y-47323D01*
X06691Y-47285D01*
X06767Y-47246D01*
X06843Y-47246D01*
X07109Y-47780D02*
X07109Y-47246D01*
X07109Y-46980D02*
X07071Y-47018D01*
X07109Y-47056D01*
X07148Y-47018D01*
X07109Y-46980D01*
X07109Y-47056D01*
X07605Y-47780D02*
X07529Y-47742D01*
X07490Y-47666D01*
X07490Y-46980D01*
X08024Y-47780D02*
X07948Y-47742D01*
X07909Y-47666D01*
X07909Y-46980D01*
X08938Y-47780D02*
X08938Y-46980D01*
X09205Y-47551D01*
X09472Y-46980D01*
X09472Y-47780D01*
X10195Y-47780D02*
X10195Y-47361D01*
X10157Y-47285D01*
X10081Y-47246D01*
X09929Y-47246D01*
X09852Y-47285D01*
X10195Y-47742D02*
X10119Y-47780D01*
X09929Y-47780D01*
X09852Y-47742D01*
X09814Y-47666D01*
X09814Y-47589D01*
X09852Y-47513D01*
X09929Y-47475D01*
X10119Y-47475D01*
X10195Y-47437D01*
X10576Y-47246D02*
X10576Y-48046D01*
X10576Y-47285D02*
X10653Y-47246D01*
X10805Y-47246D01*
X10881Y-47285D01*
X10919Y-47323D01*
X10957Y-47399D01*
X10957Y-47627D01*
X10919Y-47704D01*
X10881Y-47742D01*
X10805Y-47780D01*
X10653Y-47780D01*
X10576Y-47742D01*
X11300Y-47704D02*
X11339Y-47742D01*
X11300Y-47780D01*
X11262Y-47742D01*
X11300Y-47704D01*
X11300Y-47780D01*
X11300Y-47285D02*
X11339Y-47323D01*
X11300Y-47361D01*
X11262Y-47323D01*
X11300Y-47285D01*
X11300Y-47361D01*
X05174Y-49011D02*
X05424Y-49261D01*
X05424Y-49011D02*
X05174Y-49261D01*
X05967Y-48660D02*
X06043Y-48660D01*
X06119Y-48698D01*
X06157Y-48736D01*
X06195Y-48812D01*
X06234Y-48965D01*
X06234Y-49155D01*
X06195Y-49307D01*
X06157Y-49384D01*
X06119Y-49422D01*
X06043Y-49460D01*
X05967Y-49460D01*
X05891Y-49422D01*
X05853Y-49384D01*
X05814Y-49307D01*
X05776Y-49155D01*
X05776Y-48965D01*
X05814Y-48812D01*
X05853Y-48736D01*
X05891Y-48698D01*
X05967Y-48660D01*
X06576Y-49384D02*
X06615Y-49422D01*
X06576Y-49460D01*
X06538Y-49422D01*
X06576Y-49384D01*
X06576Y-49460D01*
X07110Y-48660D02*
X07186Y-48660D01*
X07262Y-48698D01*
X07300Y-48736D01*
X07338Y-48812D01*
X07377Y-48965D01*
X07377Y-49155D01*
X07338Y-49307D01*
X07300Y-49384D01*
X07262Y-49422D01*
X07186Y-49460D01*
X07110Y-49460D01*
X07034Y-49422D01*
X06996Y-49384D01*
X06957Y-49307D01*
X06919Y-49155D01*
X06919Y-48965D01*
X06957Y-48812D01*
X06996Y-48736D01*
X07034Y-48698D01*
X07110Y-48660D01*
X07681Y-48736D02*
X07719Y-48698D01*
X07796Y-48660D01*
X07986Y-48660D01*
X08062Y-48698D01*
X08100Y-48736D01*
X08139Y-48812D01*
X08139Y-48888D01*
X08100Y-49003D01*
X07643Y-49460D01*
X08139Y-49460D01*
X08862Y-48660D02*
X08481Y-48660D01*
X08443Y-49041D01*
X08481Y-49003D01*
X08558Y-48965D01*
X08748Y-48965D01*
X08824Y-49003D01*
X08862Y-49041D01*
X08901Y-49117D01*
X08901Y-49307D01*
X08862Y-49384D01*
X08824Y-49422D01*
X08748Y-49460D01*
X08558Y-49460D01*
X08481Y-49422D01*
X08443Y-49384D01*
X09205Y-48660D02*
X09205Y-48812D01*
X09510Y-48660D02*
X09510Y-48812D01*
X11035Y-48622D02*
X10349Y-49650D01*
X12064Y-48660D02*
X12140Y-48660D01*
X12216Y-48698D01*
X12254Y-48736D01*
X12292Y-48812D01*
X12331Y-48965D01*
X12331Y-49155D01*
X12292Y-49307D01*
X12254Y-49384D01*
X12216Y-49422D01*
X12140Y-49460D01*
X12064Y-49460D01*
X11988Y-49422D01*
X11950Y-49384D01*
X11911Y-49307D01*
X11873Y-49155D01*
X11873Y-48965D01*
X11911Y-48812D01*
X11950Y-48736D01*
X11988Y-48698D01*
X12064Y-48660D01*
X12673Y-49384D02*
X12712Y-49422D01*
X12673Y-49460D01*
X12635Y-49422D01*
X12673Y-49384D01*
X12673Y-49460D01*
X13397Y-48660D02*
X13245Y-48660D01*
X13169Y-48698D01*
X13131Y-48736D01*
X13054Y-48850D01*
X13016Y-49003D01*
X13016Y-49307D01*
X13054Y-49384D01*
X13093Y-49422D01*
X13169Y-49460D01*
X13321Y-49460D01*
X13397Y-49422D01*
X13435Y-49384D01*
X13474Y-49307D01*
X13474Y-49117D01*
X13435Y-49041D01*
X13397Y-49003D01*
X13321Y-48965D01*
X13169Y-48965D01*
X13093Y-49003D01*
X13054Y-49041D01*
X13016Y-49117D01*
X14159Y-48926D02*
X14159Y-49460D01*
X13969Y-48622D02*
X13778Y-49193D01*
X14274Y-49193D01*
X14578Y-49460D02*
X14578Y-48926D01*
X14578Y-49003D02*
X14617Y-48965D01*
X14693Y-48926D01*
X14807Y-48926D01*
X14883Y-48965D01*
X14921Y-49041D01*
X14921Y-49460D01*
X14921Y-49041D02*
X14959Y-48965D01*
X15036Y-48926D01*
X15150Y-48926D01*
X15226Y-48965D01*
X15264Y-49041D01*
X15264Y-49460D01*
X15645Y-49460D02*
X15645Y-48926D01*
X15645Y-49003D02*
X15684Y-48965D01*
X15760Y-48926D01*
X15874Y-48926D01*
X15950Y-48965D01*
X15988Y-49041D01*
X15988Y-49460D01*
X15988Y-49041D02*
X16026Y-48965D01*
X16103Y-48926D01*
X16217Y-48926D01*
X16293Y-48965D01*
X16331Y-49041D01*
X16331Y-49460D01*
X17551Y-49765D02*
X17513Y-49726D01*
X17437Y-49612D01*
X17399Y-49536D01*
X17361Y-49422D01*
X17322Y-49231D01*
X17322Y-49079D01*
X17361Y-48888D01*
X17399Y-48774D01*
X17437Y-48698D01*
X17513Y-48584D01*
X17551Y-48546D01*
X17779Y-48660D02*
X18275Y-48660D01*
X18008Y-48965D01*
X18122Y-48965D01*
X18198Y-49003D01*
X18236Y-49041D01*
X18275Y-49117D01*
X18275Y-49307D01*
X18236Y-49384D01*
X18198Y-49422D01*
X18122Y-49460D01*
X17894Y-49460D01*
X17817Y-49422D01*
X17779Y-49384D01*
X18960Y-48926D02*
X18960Y-49460D01*
X18770Y-48622D02*
X18579Y-49193D01*
X19075Y-49193D01*
X19989Y-49460D02*
X19989Y-48660D01*
X20332Y-49460D02*
X20332Y-49041D01*
X20294Y-48965D01*
X20218Y-48926D01*
X20104Y-48926D01*
X20028Y-48965D01*
X19989Y-49003D01*
X20828Y-49460D02*
X20752Y-49422D01*
X20713Y-49384D01*
X20675Y-49307D01*
X20675Y-49079D01*
X20713Y-49003D01*
X20752Y-48965D01*
X20828Y-48926D01*
X20942Y-48926D01*
X21018Y-48965D01*
X21056Y-49003D01*
X21094Y-49079D01*
X21094Y-49307D01*
X21056Y-49384D01*
X21018Y-49422D01*
X20942Y-49460D01*
X20828Y-49460D01*
X21552Y-49460D02*
X21476Y-49422D01*
X21437Y-49346D01*
X21437Y-48660D01*
X22161Y-49422D02*
X22085Y-49460D01*
X21933Y-49460D01*
X21856Y-49422D01*
X21818Y-49346D01*
X21818Y-49041D01*
X21856Y-48965D01*
X21933Y-48926D01*
X22085Y-48926D01*
X22161Y-48965D01*
X22199Y-49041D01*
X22199Y-49117D01*
X21818Y-49193D01*
X22504Y-49422D02*
X22581Y-49460D01*
X22733Y-49460D01*
X22809Y-49422D01*
X22847Y-49346D01*
X22847Y-49307D01*
X22809Y-49231D01*
X22733Y-49193D01*
X22619Y-49193D01*
X22542Y-49155D01*
X22504Y-49079D01*
X22504Y-49041D01*
X22542Y-48965D01*
X22619Y-48926D01*
X22733Y-48926D01*
X22809Y-48965D01*
X23114Y-49765D02*
X23152Y-49726D01*
X23229Y-49612D01*
X23267Y-49536D01*
X23305Y-49422D01*
X23343Y-49231D01*
X23343Y-49079D01*
X23305Y-48888D01*
X23267Y-48774D01*
X23229Y-48698D01*
X23152Y-48584D01*
X23114Y-48546D01*
G54D10*
X05424Y-50192D02*
X05420Y-50223D01*
X05411Y-50252D01*
X05397Y-50280D01*
X05377Y-50304D01*
X05353Y-50324D01*
X05326Y-50339D01*
X05296Y-50348D01*
X05265Y-50351D01*
X05235Y-50349D01*
X05205Y-50340D01*
X05177Y-50325D01*
X05153Y-50306D01*
X05132Y-50282D01*
X05117Y-50255D01*
X05108Y-50225D01*
X05105Y-50194D01*
X05107Y-50164D01*
X05116Y-50134D01*
X05130Y-50106D01*
X05149Y-50081D01*
X05173Y-50061D01*
X05200Y-50046D01*
X05230Y-50036D01*
X05261Y-50033D01*
X05291Y-50035D01*
X05321Y-50043D01*
X05349Y-50057D01*
X05374Y-50077D01*
X05394Y-50100D01*
X05410Y-50127D01*
X05420Y-50157D01*
X05423Y-50188D01*
X05424Y-50192D01*
G54D12*
X05967Y-49716D02*
X06043Y-49716D01*
X06119Y-49754D01*
X06157Y-49792D01*
X06195Y-49868D01*
X06234Y-50021D01*
X06234Y-50211D01*
X06195Y-50363D01*
X06157Y-50440D01*
X06119Y-50478D01*
X06043Y-50516D01*
X05967Y-50516D01*
X05891Y-50478D01*
X05853Y-50440D01*
X05814Y-50363D01*
X05776Y-50211D01*
X05776Y-50021D01*
X05814Y-49868D01*
X05853Y-49792D01*
X05891Y-49754D01*
X05967Y-49716D01*
X06576Y-50440D02*
X06615Y-50478D01*
X06576Y-50516D01*
X06538Y-50478D01*
X06576Y-50440D01*
X06576Y-50516D01*
X07110Y-49716D02*
X07186Y-49716D01*
X07262Y-49754D01*
X07300Y-49792D01*
X07338Y-49868D01*
X07377Y-50021D01*
X07377Y-50211D01*
X07338Y-50363D01*
X07300Y-50440D01*
X07262Y-50478D01*
X07186Y-50516D01*
X07110Y-50516D01*
X07034Y-50478D01*
X06996Y-50440D01*
X06957Y-50363D01*
X06919Y-50211D01*
X06919Y-50021D01*
X06957Y-49868D01*
X06996Y-49792D01*
X07034Y-49754D01*
X07110Y-49716D01*
X07643Y-49716D02*
X08139Y-49716D01*
X07872Y-50021D01*
X07986Y-50021D01*
X08062Y-50059D01*
X08100Y-50097D01*
X08139Y-50173D01*
X08139Y-50363D01*
X08100Y-50440D01*
X08062Y-50478D01*
X07986Y-50516D01*
X07758Y-50516D01*
X07681Y-50478D01*
X07643Y-50440D01*
X08443Y-49792D02*
X08481Y-49754D01*
X08558Y-49716D01*
X08748Y-49716D01*
X08824Y-49754D01*
X08862Y-49792D01*
X08901Y-49868D01*
X08901Y-49944D01*
X08862Y-50059D01*
X08405Y-50516D01*
X08901Y-50516D01*
X09205Y-49716D02*
X09205Y-49868D01*
X09510Y-49716D02*
X09510Y-49868D01*
X11035Y-49678D02*
X10349Y-50706D01*
X12064Y-49716D02*
X12140Y-49716D01*
X12216Y-49754D01*
X12254Y-49792D01*
X12292Y-49868D01*
X12331Y-50021D01*
X12331Y-50211D01*
X12292Y-50363D01*
X12254Y-50440D01*
X12216Y-50478D01*
X12140Y-50516D01*
X12064Y-50516D01*
X11988Y-50478D01*
X11950Y-50440D01*
X11911Y-50363D01*
X11873Y-50211D01*
X11873Y-50021D01*
X11911Y-49868D01*
X11950Y-49792D01*
X11988Y-49754D01*
X12064Y-49716D01*
X12673Y-50440D02*
X12712Y-50478D01*
X12673Y-50516D01*
X12635Y-50478D01*
X12673Y-50440D01*
X12673Y-50516D01*
X13169Y-50059D02*
X13093Y-50021D01*
X13054Y-49982D01*
X13016Y-49906D01*
X13016Y-49868D01*
X13054Y-49792D01*
X13093Y-49754D01*
X13169Y-49716D01*
X13321Y-49716D01*
X13397Y-49754D01*
X13435Y-49792D01*
X13474Y-49868D01*
X13474Y-49906D01*
X13435Y-49982D01*
X13397Y-50021D01*
X13321Y-50059D01*
X13169Y-50059D01*
X13093Y-50097D01*
X13054Y-50135D01*
X13016Y-50211D01*
X13016Y-50363D01*
X13054Y-50440D01*
X13093Y-50478D01*
X13169Y-50516D01*
X13321Y-50516D01*
X13397Y-50478D01*
X13435Y-50440D01*
X13474Y-50363D01*
X13474Y-50211D01*
X13435Y-50135D01*
X13397Y-50097D01*
X13321Y-50059D01*
X14236Y-50516D02*
X13778Y-50516D01*
X14007Y-50516D02*
X14007Y-49716D01*
X13931Y-49830D01*
X13855Y-49906D01*
X13778Y-49944D01*
X14578Y-50516D02*
X14578Y-49982D01*
X14578Y-50059D02*
X14617Y-50021D01*
X14693Y-49982D01*
X14807Y-49982D01*
X14883Y-50021D01*
X14921Y-50097D01*
X14921Y-50516D01*
X14921Y-50097D02*
X14959Y-50021D01*
X15036Y-49982D01*
X15150Y-49982D01*
X15226Y-50021D01*
X15264Y-50097D01*
X15264Y-50516D01*
X15645Y-50516D02*
X15645Y-49982D01*
X15645Y-50059D02*
X15684Y-50021D01*
X15760Y-49982D01*
X15874Y-49982D01*
X15950Y-50021D01*
X15988Y-50097D01*
X15988Y-50516D01*
X15988Y-50097D02*
X16026Y-50021D01*
X16103Y-49982D01*
X16217Y-49982D01*
X16293Y-50021D01*
X16331Y-50097D01*
X16331Y-50516D01*
X17551Y-50821D02*
X17513Y-50782D01*
X17437Y-50668D01*
X17399Y-50592D01*
X17361Y-50478D01*
X17322Y-50287D01*
X17322Y-50135D01*
X17361Y-49944D01*
X17399Y-49830D01*
X17437Y-49754D01*
X17513Y-49640D01*
X17551Y-49602D01*
X18198Y-49716D02*
X18046Y-49716D01*
X17970Y-49754D01*
X17932Y-49792D01*
X17855Y-49906D01*
X17817Y-50059D01*
X17817Y-50363D01*
X17855Y-50440D01*
X17894Y-50478D01*
X17970Y-50516D01*
X18122Y-50516D01*
X18198Y-50478D01*
X18236Y-50440D01*
X18275Y-50363D01*
X18275Y-50173D01*
X18236Y-50097D01*
X18198Y-50059D01*
X18122Y-50021D01*
X17970Y-50021D01*
X17894Y-50059D01*
X17855Y-50097D01*
X17817Y-50173D01*
X18579Y-49792D02*
X18617Y-49754D01*
X18694Y-49716D01*
X18884Y-49716D01*
X18960Y-49754D01*
X18998Y-49792D01*
X19037Y-49868D01*
X19037Y-49944D01*
X18998Y-50059D01*
X18541Y-50516D01*
X19037Y-50516D01*
X19989Y-50516D02*
X19989Y-49716D01*
X20332Y-50516D02*
X20332Y-50097D01*
X20294Y-50021D01*
X20218Y-49982D01*
X20104Y-49982D01*
X20028Y-50021D01*
X19989Y-50059D01*
X20828Y-50516D02*
X20752Y-50478D01*
X20713Y-50440D01*
X20675Y-50363D01*
X20675Y-50135D01*
X20713Y-50059D01*
X20752Y-50021D01*
X20828Y-49982D01*
X20942Y-49982D01*
X21018Y-50021D01*
X21056Y-50059D01*
X21094Y-50135D01*
X21094Y-50363D01*
X21056Y-50440D01*
X21018Y-50478D01*
X20942Y-50516D01*
X20828Y-50516D01*
X21552Y-50516D02*
X21476Y-50478D01*
X21437Y-50402D01*
X21437Y-49716D01*
X22161Y-50478D02*
X22085Y-50516D01*
X21933Y-50516D01*
X21856Y-50478D01*
X21818Y-50402D01*
X21818Y-50097D01*
X21856Y-50021D01*
X21933Y-49982D01*
X22085Y-49982D01*
X22161Y-50021D01*
X22199Y-50097D01*
X22199Y-50173D01*
X21818Y-50249D01*
X22504Y-50478D02*
X22581Y-50516D01*
X22733Y-50516D01*
X22809Y-50478D01*
X22847Y-50402D01*
X22847Y-50363D01*
X22809Y-50287D01*
X22733Y-50249D01*
X22619Y-50249D01*
X22542Y-50211D01*
X22504Y-50135D01*
X22504Y-50097D01*
X22542Y-50021D01*
X22619Y-49982D01*
X22733Y-49982D01*
X22809Y-50021D01*
X23114Y-50821D02*
X23152Y-50782D01*
X23229Y-50668D01*
X23267Y-50592D01*
X23305Y-50478D01*
X23343Y-50287D01*
X23343Y-50135D01*
X23305Y-49944D01*
X23267Y-49830D01*
X23229Y-49754D01*
X23152Y-49640D01*
X23114Y-49602D01*
X05224Y-51048D02*
X05224Y-51448D01*
X05424Y-51248D02*
X05024Y-51248D01*
X05967Y-50772D02*
X06043Y-50772D01*
X06119Y-50810D01*
X06157Y-50848D01*
X06195Y-50924D01*
X06234Y-51077D01*
X06234Y-51267D01*
X06195Y-51419D01*
X06157Y-51496D01*
X06119Y-51534D01*
X06043Y-51572D01*
X05967Y-51572D01*
X05891Y-51534D01*
X05853Y-51496D01*
X05814Y-51419D01*
X05776Y-51267D01*
X05776Y-51077D01*
X05814Y-50924D01*
X05853Y-50848D01*
X05891Y-50810D01*
X05967Y-50772D01*
X06576Y-51496D02*
X06615Y-51534D01*
X06576Y-51572D01*
X06538Y-51534D01*
X06576Y-51496D01*
X06576Y-51572D01*
X07110Y-50772D02*
X07186Y-50772D01*
X07262Y-50810D01*
X07300Y-50848D01*
X07338Y-50924D01*
X07377Y-51077D01*
X07377Y-51267D01*
X07338Y-51419D01*
X07300Y-51496D01*
X07262Y-51534D01*
X07186Y-51572D01*
X07110Y-51572D01*
X07034Y-51534D01*
X06996Y-51496D01*
X06957Y-51419D01*
X06919Y-51267D01*
X06919Y-51077D01*
X06957Y-50924D01*
X06996Y-50848D01*
X07034Y-50810D01*
X07110Y-50772D01*
X08062Y-51038D02*
X08062Y-51572D01*
X07872Y-50734D02*
X07681Y-51305D01*
X08177Y-51305D01*
X08634Y-50772D02*
X08710Y-50772D01*
X08786Y-50810D01*
X08824Y-50848D01*
X08862Y-50924D01*
X08901Y-51077D01*
X08901Y-51267D01*
X08862Y-51419D01*
X08824Y-51496D01*
X08786Y-51534D01*
X08710Y-51572D01*
X08634Y-51572D01*
X08558Y-51534D01*
X08520Y-51496D01*
X08481Y-51419D01*
X08443Y-51267D01*
X08443Y-51077D01*
X08481Y-50924D01*
X08520Y-50848D01*
X08558Y-50810D01*
X08634Y-50772D01*
X09205Y-50772D02*
X09205Y-50924D01*
X09510Y-50772D02*
X09510Y-50924D01*
X11035Y-50734D02*
X10349Y-51762D01*
X12331Y-51572D02*
X11873Y-51572D01*
X12102Y-51572D02*
X12102Y-50772D01*
X12026Y-50886D01*
X11950Y-50962D01*
X11873Y-51000D01*
X12673Y-51496D02*
X12712Y-51534D01*
X12673Y-51572D01*
X12635Y-51534D01*
X12673Y-51496D01*
X12673Y-51572D01*
X13207Y-50772D02*
X13283Y-50772D01*
X13359Y-50810D01*
X13397Y-50848D01*
X13435Y-50924D01*
X13474Y-51077D01*
X13474Y-51267D01*
X13435Y-51419D01*
X13397Y-51496D01*
X13359Y-51534D01*
X13283Y-51572D01*
X13207Y-51572D01*
X13131Y-51534D01*
X13093Y-51496D01*
X13054Y-51419D01*
X13016Y-51267D01*
X13016Y-51077D01*
X13054Y-50924D01*
X13093Y-50848D01*
X13131Y-50810D01*
X13207Y-50772D01*
X13778Y-50848D02*
X13816Y-50810D01*
X13893Y-50772D01*
X14083Y-50772D01*
X14159Y-50810D01*
X14197Y-50848D01*
X14236Y-50924D01*
X14236Y-51000D01*
X14197Y-51115D01*
X13740Y-51572D01*
X14236Y-51572D01*
X14578Y-51572D02*
X14578Y-51038D01*
X14578Y-51115D02*
X14617Y-51077D01*
X14693Y-51038D01*
X14807Y-51038D01*
X14883Y-51077D01*
X14921Y-51153D01*
X14921Y-51572D01*
X14921Y-51153D02*
X14959Y-51077D01*
X15036Y-51038D01*
X15150Y-51038D01*
X15226Y-51077D01*
X15264Y-51153D01*
X15264Y-51572D01*
X15645Y-51572D02*
X15645Y-51038D01*
X15645Y-51115D02*
X15684Y-51077D01*
X15760Y-51038D01*
X15874Y-51038D01*
X15950Y-51077D01*
X15988Y-51153D01*
X15988Y-51572D01*
X15988Y-51153D02*
X16026Y-51077D01*
X16103Y-51038D01*
X16217Y-51038D01*
X16293Y-51077D01*
X16331Y-51153D01*
X16331Y-51572D01*
X17551Y-51877D02*
X17513Y-51838D01*
X17437Y-51724D01*
X17399Y-51648D01*
X17361Y-51534D01*
X17322Y-51343D01*
X17322Y-51191D01*
X17361Y-51000D01*
X17399Y-50886D01*
X17437Y-50810D01*
X17513Y-50696D01*
X17551Y-50658D01*
X18236Y-50772D02*
X17855Y-50772D01*
X17817Y-51153D01*
X17855Y-51115D01*
X17932Y-51077D01*
X18122Y-51077D01*
X18198Y-51115D01*
X18236Y-51153D01*
X18275Y-51229D01*
X18275Y-51419D01*
X18236Y-51496D01*
X18198Y-51534D01*
X18122Y-51572D01*
X17932Y-51572D01*
X17855Y-51534D01*
X17817Y-51496D01*
X18656Y-51572D02*
X18808Y-51572D01*
X18884Y-51534D01*
X18922Y-51496D01*
X18998Y-51381D01*
X19037Y-51229D01*
X19037Y-50924D01*
X18998Y-50848D01*
X18960Y-50810D01*
X18884Y-50772D01*
X18732Y-50772D01*
X18656Y-50810D01*
X18617Y-50848D01*
X18579Y-50924D01*
X18579Y-51115D01*
X18617Y-51191D01*
X18656Y-51229D01*
X18732Y-51267D01*
X18884Y-51267D01*
X18960Y-51229D01*
X18998Y-51191D01*
X19037Y-51115D01*
X19989Y-51572D02*
X19989Y-50772D01*
X20332Y-51572D02*
X20332Y-51153D01*
X20294Y-51077D01*
X20218Y-51038D01*
X20104Y-51038D01*
X20028Y-51077D01*
X19989Y-51115D01*
X20828Y-51572D02*
X20752Y-51534D01*
X20713Y-51496D01*
X20675Y-51419D01*
X20675Y-51191D01*
X20713Y-51115D01*
X20752Y-51077D01*
X20828Y-51038D01*
X20942Y-51038D01*
X21018Y-51077D01*
X21056Y-51115D01*
X21094Y-51191D01*
X21094Y-51419D01*
X21056Y-51496D01*
X21018Y-51534D01*
X20942Y-51572D01*
X20828Y-51572D01*
X21552Y-51572D02*
X21476Y-51534D01*
X21437Y-51458D01*
X21437Y-50772D01*
X22161Y-51534D02*
X22085Y-51572D01*
X21933Y-51572D01*
X21856Y-51534D01*
X21818Y-51458D01*
X21818Y-51153D01*
X21856Y-51077D01*
X21933Y-51038D01*
X22085Y-51038D01*
X22161Y-51077D01*
X22199Y-51153D01*
X22199Y-51229D01*
X21818Y-51305D01*
X22504Y-51534D02*
X22581Y-51572D01*
X22733Y-51572D01*
X22809Y-51534D01*
X22847Y-51458D01*
X22847Y-51419D01*
X22809Y-51343D01*
X22733Y-51305D01*
X22619Y-51305D01*
X22542Y-51267D01*
X22504Y-51191D01*
X22504Y-51153D01*
X22542Y-51077D01*
X22619Y-51038D01*
X22733Y-51038D01*
X22809Y-51077D01*
X23114Y-51877D02*
X23152Y-51838D01*
X23229Y-51724D01*
X23267Y-51648D01*
X23305Y-51534D01*
X23343Y-51343D01*
X23343Y-51191D01*
X23305Y-51000D01*
X23267Y-50886D01*
X23229Y-50810D01*
X23152Y-50696D01*
X23114Y-50658D01*
G54D10*
X05424Y-52304D02*
X05412Y-52420D01*
X05378Y-52532D01*
X05323Y-52636D01*
X05249Y-52726D01*
X05159Y-52801D01*
X05056Y-52857D01*
X04944Y-52891D01*
X04828Y-52903D01*
X04712Y-52893D01*
X04600Y-52860D01*
X04496Y-52806D01*
X04405Y-52732D01*
X04329Y-52642D01*
X04273Y-52540D01*
X04238Y-52428D01*
X04225Y-52312D01*
X04234Y-52196D01*
X04267Y-52084D01*
X04320Y-51979D01*
X04393Y-51888D01*
X04482Y-51812D01*
X04584Y-51755D01*
X04696Y-51718D01*
X04812Y-51705D01*
X04928Y-51714D01*
X05040Y-51745D01*
X05145Y-51798D01*
X05237Y-51870D01*
X05314Y-51959D01*
X05372Y-52060D01*
X05409Y-52172D01*
X05423Y-52288D01*
X05424Y-52304D01*
X04224Y-51704D02*
X05424Y-52904D01*
X05424Y-51704D02*
X04224Y-52904D01*
G54D12*
X05967Y-51828D02*
X06043Y-51828D01*
X06119Y-51866D01*
X06157Y-51904D01*
X06195Y-51980D01*
X06234Y-52133D01*
X06234Y-52323D01*
X06195Y-52475D01*
X06157Y-52552D01*
X06119Y-52590D01*
X06043Y-52628D01*
X05967Y-52628D01*
X05891Y-52590D01*
X05853Y-52552D01*
X05814Y-52475D01*
X05776Y-52323D01*
X05776Y-52133D01*
X05814Y-51980D01*
X05853Y-51904D01*
X05891Y-51866D01*
X05967Y-51828D01*
X06576Y-52552D02*
X06615Y-52590D01*
X06576Y-52628D01*
X06538Y-52590D01*
X06576Y-52552D01*
X06576Y-52628D01*
X07377Y-52628D02*
X06919Y-52628D01*
X07148Y-52628D02*
X07148Y-51828D01*
X07072Y-51942D01*
X06996Y-52018D01*
X06919Y-52056D01*
X07681Y-51904D02*
X07719Y-51866D01*
X07796Y-51828D01*
X07986Y-51828D01*
X08062Y-51866D01*
X08100Y-51904D01*
X08139Y-51980D01*
X08139Y-52056D01*
X08100Y-52171D01*
X07643Y-52628D01*
X08139Y-52628D01*
X08634Y-51828D02*
X08710Y-51828D01*
X08786Y-51866D01*
X08824Y-51904D01*
X08862Y-51980D01*
X08901Y-52133D01*
X08901Y-52323D01*
X08862Y-52475D01*
X08824Y-52552D01*
X08786Y-52590D01*
X08710Y-52628D01*
X08634Y-52628D01*
X08558Y-52590D01*
X08520Y-52552D01*
X08481Y-52475D01*
X08443Y-52323D01*
X08443Y-52133D01*
X08481Y-51980D01*
X08520Y-51904D01*
X08558Y-51866D01*
X08634Y-51828D01*
X09205Y-51828D02*
X09205Y-51980D01*
X09510Y-51828D02*
X09510Y-51980D01*
X11035Y-51790D02*
X10349Y-52818D01*
X11835Y-51828D02*
X12331Y-51828D01*
X12064Y-52133D01*
X12178Y-52133D01*
X12254Y-52171D01*
X12292Y-52209D01*
X12331Y-52285D01*
X12331Y-52475D01*
X12292Y-52552D01*
X12254Y-52590D01*
X12178Y-52628D01*
X11950Y-52628D01*
X11873Y-52590D01*
X11835Y-52552D01*
X12673Y-52552D02*
X12712Y-52590D01*
X12673Y-52628D01*
X12635Y-52590D01*
X12673Y-52552D01*
X12673Y-52628D01*
X13207Y-51828D02*
X13283Y-51828D01*
X13359Y-51866D01*
X13397Y-51904D01*
X13435Y-51980D01*
X13474Y-52133D01*
X13474Y-52323D01*
X13435Y-52475D01*
X13397Y-52552D01*
X13359Y-52590D01*
X13283Y-52628D01*
X13207Y-52628D01*
X13131Y-52590D01*
X13093Y-52552D01*
X13054Y-52475D01*
X13016Y-52323D01*
X13016Y-52133D01*
X13054Y-51980D01*
X13093Y-51904D01*
X13131Y-51866D01*
X13207Y-51828D01*
X14197Y-51828D02*
X13816Y-51828D01*
X13778Y-52209D01*
X13816Y-52171D01*
X13893Y-52133D01*
X14083Y-52133D01*
X14159Y-52171D01*
X14197Y-52209D01*
X14236Y-52285D01*
X14236Y-52475D01*
X14197Y-52552D01*
X14159Y-52590D01*
X14083Y-52628D01*
X13893Y-52628D01*
X13816Y-52590D01*
X13778Y-52552D01*
X14578Y-52628D02*
X14578Y-52094D01*
X14578Y-52171D02*
X14617Y-52133D01*
X14693Y-52094D01*
X14807Y-52094D01*
X14883Y-52133D01*
X14921Y-52209D01*
X14921Y-52628D01*
X14921Y-52209D02*
X14959Y-52133D01*
X15036Y-52094D01*
X15150Y-52094D01*
X15226Y-52133D01*
X15264Y-52209D01*
X15264Y-52628D01*
X15645Y-52628D02*
X15645Y-52094D01*
X15645Y-52171D02*
X15684Y-52133D01*
X15760Y-52094D01*
X15874Y-52094D01*
X15950Y-52133D01*
X15988Y-52209D01*
X15988Y-52628D01*
X15988Y-52209D02*
X16026Y-52133D01*
X16103Y-52094D01*
X16217Y-52094D01*
X16293Y-52133D01*
X16331Y-52209D01*
X16331Y-52628D01*
X17551Y-52933D02*
X17513Y-52894D01*
X17437Y-52780D01*
X17399Y-52704D01*
X17361Y-52590D01*
X17322Y-52399D01*
X17322Y-52247D01*
X17361Y-52056D01*
X17399Y-51942D01*
X17437Y-51866D01*
X17513Y-51752D01*
X17551Y-51714D01*
X18198Y-52094D02*
X18198Y-52628D01*
X18008Y-51790D02*
X17817Y-52361D01*
X18313Y-52361D01*
X19227Y-52628D02*
X19227Y-51828D01*
X19570Y-52628D02*
X19570Y-52209D01*
X19532Y-52133D01*
X19456Y-52094D01*
X19342Y-52094D01*
X19266Y-52133D01*
X19227Y-52171D01*
X20066Y-52628D02*
X19990Y-52590D01*
X19951Y-52552D01*
X19913Y-52475D01*
X19913Y-52247D01*
X19951Y-52171D01*
X19990Y-52133D01*
X20066Y-52094D01*
X20180Y-52094D01*
X20256Y-52133D01*
X20294Y-52171D01*
X20332Y-52247D01*
X20332Y-52475D01*
X20294Y-52552D01*
X20256Y-52590D01*
X20180Y-52628D01*
X20066Y-52628D01*
X20790Y-52628D02*
X20714Y-52590D01*
X20675Y-52514D01*
X20675Y-51828D01*
X21399Y-52590D02*
X21323Y-52628D01*
X21171Y-52628D01*
X21094Y-52590D01*
X21056Y-52514D01*
X21056Y-52209D01*
X21094Y-52133D01*
X21171Y-52094D01*
X21323Y-52094D01*
X21399Y-52133D01*
X21437Y-52209D01*
X21437Y-52285D01*
X21056Y-52361D01*
X21742Y-52590D02*
X21819Y-52628D01*
X21971Y-52628D01*
X22047Y-52590D01*
X22085Y-52514D01*
X22085Y-52475D01*
X22047Y-52399D01*
X21971Y-52361D01*
X21857Y-52361D01*
X21780Y-52323D01*
X21742Y-52247D01*
X21742Y-52209D01*
X21780Y-52133D01*
X21857Y-52094D01*
X21971Y-52094D01*
X22047Y-52133D01*
X22352Y-52933D02*
X22390Y-52894D01*
X22467Y-52780D01*
X22505Y-52704D01*
X22543Y-52590D01*
X22581Y-52399D01*
X22581Y-52247D01*
X22543Y-52056D01*
X22505Y-51942D01*
X22467Y-51866D01*
X22390Y-51752D01*
X22352Y-51714D01*
M02*
