G04 (created by PCBNEW-RS274X (2010-06-08 BZR 2367)-stable) date Sat 18 Dec 2010 10:45:12 PM CET*
G01*
G70*
G90*
%MOIN*%
G04 Gerber Fmt 3.4, Leading zero omitted, Abs format*
%FSLAX34Y34*%
G04 APERTURE LIST*
%ADD10C,0.001000*%
%ADD11C,0.015000*%
%ADD12C,0.055000*%
%ADD13R,0.060000X0.060000*%
%ADD14C,0.060000*%
%ADD15R,0.100000X0.100000*%
%ADD16C,0.100000*%
%ADD17O,0.104000X0.052000*%
%ADD18R,0.055000X0.055000*%
%ADD19C,0.160000*%
%ADD20C,0.035000*%
%ADD21C,0.039400*%
%ADD22C,0.015700*%
G04 APERTURE END LIST*
G54D10*
G54D11*
X37000Y-05500D02*
X37000Y-46500D01*
X05500Y-46500D02*
X05500Y-05500D01*
X37000Y-46500D02*
X05500Y-46500D01*
X05500Y-05500D02*
X37000Y-05500D01*
G54D12*
X21000Y-37000D03*
X21000Y-38000D03*
X19000Y-37000D03*
X19000Y-38000D03*
G54D13*
X30250Y-28500D03*
G54D14*
X30250Y-29500D03*
X30250Y-30500D03*
G54D13*
X23000Y-42000D03*
G54D14*
X23000Y-43000D03*
X22000Y-42000D03*
X22000Y-43000D03*
X21000Y-42000D03*
X21000Y-43000D03*
G54D13*
X31500Y-22000D03*
G54D14*
X31500Y-21000D03*
X32500Y-22000D03*
X32500Y-21000D03*
X33500Y-22000D03*
X33500Y-21000D03*
G54D13*
X08500Y-38000D03*
G54D14*
X08500Y-37000D03*
X09500Y-38000D03*
X09500Y-37000D03*
X10500Y-38000D03*
X10500Y-37000D03*
G54D13*
X27500Y-10000D03*
G54D14*
X27500Y-11000D03*
X26500Y-10000D03*
X26500Y-11000D03*
X25500Y-10000D03*
X25500Y-11000D03*
G54D13*
X21500Y-10000D03*
G54D14*
X21500Y-11000D03*
X20500Y-10000D03*
X20500Y-11000D03*
X19500Y-10000D03*
X19500Y-11000D03*
G54D13*
X15500Y-10000D03*
G54D14*
X15500Y-11000D03*
X14500Y-10000D03*
X14500Y-11000D03*
X13500Y-10000D03*
X13500Y-11000D03*
G54D13*
X09500Y-10000D03*
G54D14*
X09500Y-11000D03*
X08500Y-10000D03*
X08500Y-11000D03*
X07500Y-10000D03*
X07500Y-11000D03*
G54D15*
X34500Y-37000D03*
G54D16*
X34500Y-35000D03*
G54D15*
X34500Y-11500D03*
G54D16*
X34500Y-13500D03*
G54D14*
X19000Y-35000D03*
X21000Y-35000D03*
G54D17*
X30000Y-45000D03*
X30000Y-44000D03*
X30000Y-43000D03*
X30000Y-42000D03*
X27000Y-42000D03*
X27000Y-43000D03*
X27000Y-44000D03*
X27000Y-45000D03*
X15750Y-44000D03*
X15750Y-43000D03*
X15750Y-42000D03*
X15750Y-41000D03*
X12750Y-41000D03*
X12750Y-42000D03*
X12750Y-43000D03*
X12750Y-44000D03*
G54D18*
X08500Y-32500D03*
G54D12*
X09500Y-32500D03*
X10500Y-32500D03*
X11500Y-32500D03*
X12500Y-32500D03*
X13500Y-32500D03*
X14500Y-32500D03*
X15500Y-32500D03*
X16500Y-32500D03*
X17500Y-32500D03*
X18500Y-32500D03*
X19500Y-32500D03*
X20500Y-32500D03*
X21500Y-32500D03*
X22500Y-32500D03*
X23500Y-32500D03*
X24500Y-32500D03*
X25500Y-32500D03*
X26500Y-32500D03*
X27500Y-32500D03*
X27500Y-26500D03*
X26500Y-26500D03*
X25500Y-26500D03*
X24500Y-26500D03*
X23500Y-26500D03*
X22500Y-26500D03*
X21500Y-26500D03*
X20500Y-26500D03*
X19500Y-26500D03*
X18500Y-26500D03*
X17500Y-26500D03*
X16500Y-26500D03*
X15500Y-26500D03*
X14500Y-26500D03*
X13500Y-26500D03*
X12500Y-26500D03*
X11500Y-26500D03*
X10500Y-26500D03*
X09500Y-26500D03*
X08500Y-26500D03*
G54D13*
X21500Y-22000D03*
G54D14*
X21500Y-21000D03*
X22500Y-22000D03*
X22500Y-21000D03*
X23500Y-22000D03*
X23500Y-21000D03*
X24500Y-22000D03*
X24500Y-21000D03*
X25500Y-22000D03*
X25500Y-21000D03*
G54D19*
X07000Y-07000D03*
X34500Y-07000D03*
X34500Y-43500D03*
X08000Y-43500D03*
G54D20*
X17500Y-21000D03*
X19500Y-21000D03*
X21500Y-15000D03*
X21500Y-12000D03*
X20500Y-15000D03*
X20500Y-12000D03*
X17000Y-39000D03*
X23500Y-39000D03*
X06500Y-33250D03*
X06500Y-20000D03*
X23500Y-20000D03*
X16500Y-33250D03*
X09500Y-12000D03*
X09500Y-15000D03*
X15500Y-15000D03*
X15500Y-12000D03*
X21500Y-24000D03*
X25500Y-24000D03*
X27500Y-15000D03*
X27500Y-12000D03*
X26500Y-12000D03*
X26500Y-15000D03*
X08500Y-15000D03*
X08500Y-12000D03*
X14500Y-15000D03*
X14500Y-12000D03*
X21500Y-23000D03*
X24500Y-23000D03*
X07500Y-34500D03*
X11500Y-34500D03*
X18500Y-25000D03*
X33000Y-26000D03*
X18500Y-22000D03*
X07500Y-22000D03*
G54D21*
X19500Y-21000D02*
X17500Y-21000D01*
G54D22*
X21500Y-12000D02*
X21500Y-15000D01*
X20500Y-12000D02*
X20500Y-15000D01*
G54D21*
X17000Y-39000D02*
X23500Y-39000D01*
X16250Y-33250D02*
X06500Y-33250D01*
X23500Y-20000D02*
X06500Y-20000D01*
X16500Y-33250D02*
X16250Y-33250D01*
G54D22*
X09500Y-15000D02*
X09500Y-12000D01*
X15500Y-12000D02*
X15500Y-15000D01*
G54D21*
X21500Y-24000D02*
X25500Y-24000D01*
G54D22*
X27500Y-12000D02*
X27500Y-15000D01*
X26500Y-12000D02*
X26500Y-15000D01*
X08500Y-12000D02*
X08500Y-15000D01*
X14500Y-12000D02*
X14500Y-15000D01*
G54D21*
X21500Y-23000D02*
X24500Y-23000D01*
X07500Y-34500D02*
X11500Y-34500D01*
X18500Y-25000D02*
X32000Y-25000D01*
X32000Y-25000D02*
X33000Y-26000D01*
X18500Y-22000D02*
X07500Y-22000D01*
M02*
